<svg width="66" height="66" viewBox="0 0 66 66" fill="none" xmlns="http://www.w3.org/2000/svg">
<path fill-rule="evenodd" clip-rule="evenodd" d="M33 65.5C50.9493 65.5 65.5 50.9493 65.5 33C65.5 15.0507 50.9493 0.5 33 0.5C15.0507 0.5 0.5 15.0507 0.5 33C0.5 50.9493 15.0507 65.5 33 65.5ZM34.3856 29.8856C33.6158 29.1158 32.3717 29.1032 31.5864 29.8571L21.9992 39.0608C21.1807 39.8465 19.8731 39.7948 19.1193 38.9467L17.7743 37.4336C17.0621 36.6323 17.1083 35.412 17.8791 34.6669L30.9186 22.062C31.2915 21.7015 31.7899 21.5 32.3086 21.5H33.6716C34.202 21.5 34.7107 21.7107 35.0858 22.0858L47.6665 34.6665C48.4153 35.4153 48.4507 36.618 47.7471 37.4095L46.4092 38.9147C45.6447 39.7747 44.3139 39.8139 43.5002 39.0002L34.3856 29.8856Z" fill="#F2F2F2"/>
</svg>
