<svg width="150" height="150" viewBox="0 0 150 150" fill="none" xmlns="http://www.w3.org/2000/svg">
<rect width="150" height="150" rx="5" fill="#F2F2F2"/>
<g filter="url(#filter0_d_321_27)">
<path d="M55.3989 109.61C55.3246 109.479 55.2583 109.344 55.2005 109.204C54.8013 108.28 54.6787 107.259 54.8473 106.267H31.2067L66.3395 44.4386L77.8739 64.7151L81.2176 58.798L71.163 41.0855C70.6812 40.1783 69.9796 39.4064 69.1226 38.8403C68.2655 38.2742 67.2802 37.9319 66.2567 37.8448C65.2354 37.8913 64.2475 38.2234 63.4056 38.8035C62.5637 39.3836 61.9014 40.1883 61.4942 41.1261L25.902 103.704C25.37 104.588 25.0633 105.588 25.0088 106.618C24.9543 107.648 25.1537 108.676 25.5895 109.61C26.1369 110.474 26.9149 111.166 27.8355 111.61C28.7561 112.054 29.7827 112.232 30.7989 112.123H60.6098C59.5934 112.234 58.5663 112.057 57.6454 111.613C56.7244 111.169 55.9451 110.475 55.3989 109.61Z" fill="#C51010"/>
<path d="M123.936 103.703L94.688 52.1824C94.2082 51.2656 93.5052 50.4844 92.6439 49.911C91.7826 49.3375 90.7907 48.9902 89.7598 48.9011C88.7397 48.9454 87.7526 49.2754 86.9111 49.8537C86.0696 50.4319 85.4075 51.235 85.0005 52.1714L81.2177 58.7964L84.5833 64.7152L89.7911 55.4949L118.727 106.265H107.724C107.865 107.104 107.785 107.966 107.494 108.765C107.433 108.942 107.356 109.113 107.265 109.276L107.171 109.464C106.573 110.308 105.776 110.992 104.852 111.455C103.927 111.918 102.902 112.147 101.868 112.12H119.08C120.114 112.148 121.14 111.92 122.065 111.456C122.99 110.993 123.786 110.308 124.383 109.464C124.855 108.558 125.063 107.538 124.984 106.519C124.905 105.501 124.542 104.525 123.936 103.703Z" fill="#9E1F1F"/>
<path d="M107.172 109.465L107.266 109.278C107.357 109.114 107.433 108.943 107.494 108.767C107.785 107.967 107.864 107.106 107.724 106.267C107.561 105.362 107.236 104.493 106.765 103.704L84.6051 64.7152L81.2192 58.798L77.8536 64.7152L55.702 103.704C55.272 104.503 54.9829 105.37 54.8473 106.267C54.669 107.257 54.7814 108.278 55.1708 109.206C55.2285 109.345 55.2948 109.481 55.3692 109.612C55.9168 110.475 56.6949 111.167 57.6155 111.611C58.5361 112.055 59.5625 112.232 60.5786 112.123H101.836C102.876 112.154 103.906 111.927 104.837 111.464C105.767 111.001 106.569 110.314 107.171 109.467L107.172 109.465ZM81.2176 70.6339L101.472 106.265H60.9723L81.2176 70.6339Z" fill="#721616"/>
</g>
<defs>
<filter id="filter0_d_321_27" x="21" y="37.8448" width="108" height="82.3102" filterUnits="userSpaceOnUse" color-interpolation-filters="sRGB">
<feFlood flood-opacity="0" result="BackgroundImageFix"/>
<feColorMatrix in="SourceAlpha" type="matrix" values="0 0 0 0 0 0 0 0 0 0 0 0 0 0 0 0 0 0 127 0" result="hardAlpha"/>
<feOffset dy="4"/>
<feGaussianBlur stdDeviation="2"/>
<feComposite in2="hardAlpha" operator="out"/>
<feColorMatrix type="matrix" values="0 0 0 0 0 0 0 0 0 0 0 0 0 0 0 0 0 0 0.25 0"/>
<feBlend mode="normal" in2="BackgroundImageFix" result="effect1_dropShadow_321_27"/>
<feBlend mode="normal" in="SourceGraphic" in2="effect1_dropShadow_321_27" result="shape"/>
</filter>
</defs>
</svg>
