<svg width="150" height="150" viewBox="0 0 150 150" fill="none" xmlns="http://www.w3.org/2000/svg">
<rect width="150" height="150" rx="5" fill="#F2F2F2"/>
<g filter="url(#filter0_d_119_563)">
<path d="M106.68 59.6046C105.625 59.253 104.57 58.921 103.516 58.6085C103.691 57.8859 103.848 57.1632 104.004 56.4405C106.406 44.7999 104.824 35.4445 99.4922 32.3585C94.3555 29.4093 85.9766 32.4757 77.5 39.8585C76.6602 40.5812 75.8398 41.3429 75.0586 42.1046C74.5312 41.5968 73.9844 41.089 73.4375 40.6007C64.5508 32.7101 55.6445 29.3898 50.3125 32.4952C45.1953 35.464 43.6719 44.2726 45.8203 55.2882C46.0352 56.382 46.2695 57.4562 46.543 58.5499C45.293 58.9015 44.0625 59.2921 42.9102 59.7023C32.4805 63.3155 25 69.0187 25 74.9171C25 81.0109 32.9688 87.1241 43.8086 90.8351C44.6875 91.128 45.5664 91.421 46.4648 91.6749C46.1719 92.8468 45.918 93.9991 45.6836 95.1905C43.6328 106.03 45.2344 114.624 50.3516 117.573C55.625 120.62 64.4922 117.495 73.125 109.937C73.8086 109.331 74.4922 108.706 75.1758 108.042C76.0352 108.882 76.9336 109.683 77.832 110.464C86.1914 117.651 94.4531 120.562 99.5508 117.612C104.824 114.566 106.543 105.327 104.316 94.0773C104.141 93.2179 103.945 92.339 103.73 91.4405C104.355 91.2648 104.961 91.0695 105.566 90.8741C116.836 87.1437 125 81.1085 125 74.9171C125 68.9991 117.305 63.257 106.68 59.6046ZM80.2539 43.0226C87.5195 36.6945 94.2969 34.214 97.3828 35.9913C100.684 37.8859 101.953 45.5421 99.8828 55.6007C99.7461 56.2648 99.6094 56.9093 99.4336 57.5538C95.0977 56.5773 90.7031 55.8741 86.2891 55.4835C83.75 51.8507 80.9766 48.3741 77.9688 45.1124C78.7305 44.3898 79.4727 43.7062 80.2539 43.0226ZM57.6562 85.0538C58.6523 86.753 59.668 88.4523 60.7422 90.1124C57.6953 89.7804 54.668 89.2921 51.6797 88.6476C52.5391 85.8351 53.6133 82.9249 54.8633 79.9562C55.7617 81.6749 56.6797 83.3741 57.6562 85.0538ZM51.7383 61.5577C54.5508 60.9327 57.5391 60.4249 60.6445 60.0343C59.6094 61.6554 58.5938 63.3155 57.6367 64.9952C56.6797 66.6554 55.7422 68.3546 54.8633 70.0734C53.6328 67.1632 52.5977 64.3116 51.7383 61.5577ZM57.0898 75.0148C58.3789 72.3195 59.7852 69.6827 61.2695 67.0851C62.7539 64.4874 64.3555 61.9679 66.0352 59.4874C68.9648 59.2726 71.9531 59.1554 75 59.1554C78.0469 59.1554 81.0547 59.2726 83.9648 59.4874C85.625 61.9484 87.207 64.4679 88.7109 67.046C90.2148 69.6241 91.6211 72.2609 92.9492 74.9366C91.6406 77.632 90.2344 80.2882 88.7305 82.9054C87.2461 85.503 85.6641 88.0226 84.0039 90.5226C81.0938 90.7374 78.0664 90.8351 75 90.8351C71.9336 90.8351 68.9648 90.7374 66.0938 90.5616C64.3945 88.0812 62.793 85.5421 61.2891 82.9445C59.7852 80.3468 58.3984 77.7101 57.0898 75.0148ZM92.3633 85.0148C93.3594 83.296 94.2969 81.5577 95.2148 79.7999C96.4648 82.632 97.5586 85.503 98.5156 88.4523C95.4883 89.1359 92.4219 89.6632 89.3359 90.0148C90.3906 88.3741 91.3867 86.6945 92.3633 85.0148ZM95.1758 70.0734C94.2578 68.3546 93.3203 66.6359 92.3438 64.9562C91.3867 63.296 90.3906 61.6554 89.3555 60.0343C92.5 60.4249 95.5078 60.9523 98.3203 61.5968C97.4219 64.4874 96.3672 67.2999 95.1758 70.0734ZM75.0391 48.1007C77.0898 50.3273 79.0234 52.671 80.8203 55.0929C76.9531 54.9171 73.0664 54.9171 69.1992 55.0929C71.1133 52.5734 73.0859 50.2296 75.0391 48.1007ZM52.3828 36.1281C55.6641 34.214 62.9492 36.9484 70.625 43.7452C71.1133 44.1749 71.6016 44.6437 72.1094 45.1124C69.082 48.3741 66.2891 51.8507 63.7305 55.4835C59.3164 55.8741 54.9414 56.5577 50.6055 57.5148C50.3516 56.5187 50.1367 55.503 49.9219 54.4874C48.0859 45.0343 49.2969 37.9054 52.3828 36.1281ZM47.5977 87.6124C46.7773 87.378 45.9766 87.1241 45.1758 86.8507C41.0156 85.5421 36.2891 83.4718 32.8711 80.757C30.8984 79.3898 29.5703 77.2804 29.1992 74.9171C29.1992 71.3429 35.3711 66.7726 44.2773 63.6671C45.3906 63.2765 46.5234 62.9249 47.6562 62.5929C48.9844 66.8312 50.5859 70.9913 52.4414 75.0148C50.5664 79.0968 48.9453 83.3155 47.5977 87.6124ZM70.3711 106.753C67.1484 109.702 63.418 112.046 59.3555 113.648C57.1875 114.683 54.6875 114.78 52.4609 113.901C49.3555 112.105 48.0664 105.21 49.8242 95.9327C50.0391 94.839 50.2734 93.7452 50.5469 92.671C54.9219 93.6085 59.3359 94.253 63.8086 94.5851C66.3867 98.2374 69.2188 101.734 72.2461 105.015C71.6211 105.62 70.9961 106.206 70.3711 106.753ZM75.1562 102.007C73.1641 99.8585 71.1719 97.4757 69.2383 94.9171C71.1133 94.9952 73.0469 95.0343 75 95.0343C77.0117 95.0343 78.9844 94.9952 80.9375 94.8976C79.1406 97.378 77.207 99.7413 75.1562 102.007ZM100.684 107.866C100.508 110.249 99.3359 112.476 97.4609 113.98C94.3555 115.776 87.7344 113.433 80.5859 107.3C79.7656 106.597 78.9453 105.835 78.1055 105.054C81.0938 101.753 83.8477 98.257 86.3477 94.5851C90.8203 94.214 95.2734 93.5304 99.668 92.5343C99.8633 93.3351 100.039 94.1359 100.195 94.9171C101.152 99.1359 101.309 103.53 100.684 107.866ZM104.238 86.8702C103.691 87.046 103.145 87.2218 102.578 87.378C101.211 83.1202 99.5312 78.9601 97.5977 74.9171C99.4727 70.9327 101.055 66.8312 102.383 62.632C103.398 62.9249 104.375 63.2374 105.312 63.5499C114.414 66.6749 120.801 71.3234 120.801 74.878C120.801 78.7062 113.984 83.6476 104.238 86.8702ZM75 83.9405C79.9414 83.9405 83.9453 79.9366 83.9453 74.9952C83.9453 70.0538 79.9414 66.0499 75 66.0499C70.0586 66.0499 66.0547 70.0538 66.0547 74.9952C66.0547 79.9366 70.0586 83.9405 75 83.9405Z" fill="#C51010"/>
</g>
<defs>
<filter id="filter0_d_119_563" x="21" y="31.2477" width="108" height="95.5046" filterUnits="userSpaceOnUse" color-interpolation-filters="sRGB">
<feFlood flood-opacity="0" result="BackgroundImageFix"/>
<feColorMatrix in="SourceAlpha" type="matrix" values="0 0 0 0 0 0 0 0 0 0 0 0 0 0 0 0 0 0 127 0" result="hardAlpha"/>
<feOffset dy="4"/>
<feGaussianBlur stdDeviation="2"/>
<feComposite in2="hardAlpha" operator="out"/>
<feColorMatrix type="matrix" values="0 0 0 0 0 0 0 0 0 0 0 0 0 0 0 0 0 0 0.25 0"/>
<feBlend mode="normal" in2="BackgroundImageFix" result="effect1_dropShadow_119_563"/>
<feBlend mode="normal" in="SourceGraphic" in2="effect1_dropShadow_119_563" result="shape"/>
</filter>
</defs>
</svg>
