<svg width="150" height="150" viewBox="0 0 150 150" fill="none" xmlns="http://www.w3.org/2000/svg">
<rect width="150" height="150" rx="5" fill="#F2F2F2"/>
<g filter="url(#filter0_d_119_531)">
<path d="M110.357 30H39.6429C34.3192 30 30 34.3192 30 39.6429V110.357C30 115.681 34.3192 120 39.6429 120H110.357C115.681 120 120 115.681 120 110.357V39.6429C120 34.3192 115.681 30 110.357 30ZM78.9777 100.192C78.9777 108.951 73.8348 112.949 66.3415 112.949C59.5714 112.949 55.654 109.453 53.6451 105.214L60.5357 101.056C61.8616 103.406 63.067 105.395 65.9799 105.395C68.7522 105.395 70.5201 104.31 70.5201 100.071V71.3237H78.9777V100.192ZM98.9866 112.949C91.1317 112.949 86.0491 109.212 83.5781 104.31L90.4687 100.333C92.2768 103.286 94.6473 105.475 98.8058 105.475C102.301 105.475 104.551 103.728 104.551 101.297C104.551 98.404 102.261 97.3795 98.3839 95.6719L96.2746 94.7679C90.1674 92.1763 86.1295 88.9018 86.1295 82.0112C86.1295 75.6629 90.971 70.8415 98.5045 70.8415C103.888 70.8415 107.746 72.7098 110.518 77.6116L103.929 81.8304C102.482 79.2388 100.915 78.2143 98.4844 78.2143C96.0134 78.2143 94.4464 79.7812 94.4464 81.8304C94.4464 84.3616 96.0134 85.3862 99.6496 86.9732L101.759 87.8772C108.951 90.9509 112.989 94.1049 112.989 101.176C112.989 108.77 107.002 112.949 98.9866 112.949Z" fill="#C51010"/>
</g>
<defs>
<filter id="filter0_d_119_531" x="26" y="30" width="98" height="98" filterUnits="userSpaceOnUse" color-interpolation-filters="sRGB">
<feFlood flood-opacity="0" result="BackgroundImageFix"/>
<feColorMatrix in="SourceAlpha" type="matrix" values="0 0 0 0 0 0 0 0 0 0 0 0 0 0 0 0 0 0 127 0" result="hardAlpha"/>
<feOffset dy="4"/>
<feGaussianBlur stdDeviation="2"/>
<feComposite in2="hardAlpha" operator="out"/>
<feColorMatrix type="matrix" values="0 0 0 0 0 0 0 0 0 0 0 0 0 0 0 0 0 0 0.25 0"/>
<feBlend mode="normal" in2="BackgroundImageFix" result="effect1_dropShadow_119_531"/>
<feBlend mode="normal" in="SourceGraphic" in2="effect1_dropShadow_119_531" result="shape"/>
</filter>
</defs>
</svg>
