<svg width="150" height="150" viewBox="0 0 150 150" fill="none" xmlns="http://www.w3.org/2000/svg">
<rect width="150" height="150" rx="5" fill="#F2F2F2"/>
<g filter="url(#filter0_d_119_570)">
<path d="M92.5026 57.5128C97.1432 57.5128 101.594 55.6693 104.875 52.3879C108.157 49.1065 110 44.656 110 40.0154C110 35.3748 108.157 30.9242 104.875 27.6428C101.594 24.3614 97.1432 22.5179 92.5026 22.5179L57.5077 22.5179C52.8698 22.5179 48.4219 24.3603 45.1424 27.6398C41.8629 30.9193 40.0205 35.3672 40.0205 40.0051C40.0205 44.643 41.8629 49.091 45.1424 52.3704C48.4219 55.6499 52.8698 57.4923 57.5077 57.4923C52.8671 57.4923 48.4165 59.3358 45.1351 62.6172C41.8537 65.8986 40.0103 70.3491 40.0103 74.9897C40.0103 79.6304 41.8537 84.0809 45.1351 87.3623C48.4165 90.6437 52.8671 92.4872 57.5077 92.4872C54.047 92.4852 50.6635 93.5094 47.7849 95.4303C44.9063 97.3513 42.6621 100.083 41.3358 103.279C40.0096 106.476 39.6611 109.994 40.3342 113.388C41.0074 116.783 42.672 119.901 45.1176 122.35C47.5633 124.798 50.68 126.467 54.0738 127.144C57.4676 127.821 60.9859 127.477 64.184 126.154C67.382 124.832 70.116 122.59 72.0403 119.714C73.9647 116.838 74.9928 113.456 74.9949 109.995V57.5128H92.5026ZM92.5026 57.5128C89.0439 57.5128 85.663 58.5384 82.7872 60.4599C79.9114 62.3815 77.6701 65.1126 76.3465 68.3079C75.0229 71.5033 74.6766 75.0194 75.3514 78.4116C76.0261 81.8038 77.6916 84.9197 80.1373 87.3653C82.5829 89.8109 85.6988 91.4764 89.091 92.1512C92.4832 92.8259 95.9993 92.4796 99.1946 91.1561C102.39 89.8325 105.121 87.5911 107.043 84.7154C108.964 81.8396 109.99 78.4586 109.99 75C109.989 70.3623 108.147 65.9147 104.867 62.6353C101.588 59.3559 97.1403 57.5134 92.5026 57.5128Z" fill="#C51010"/>
</g>
<defs>
<filter id="filter0_d_119_570" x="36" y="22.5179" width="78" height="112.964" filterUnits="userSpaceOnUse" color-interpolation-filters="sRGB">
<feFlood flood-opacity="0" result="BackgroundImageFix"/>
<feColorMatrix in="SourceAlpha" type="matrix" values="0 0 0 0 0 0 0 0 0 0 0 0 0 0 0 0 0 0 127 0" result="hardAlpha"/>
<feOffset dy="4"/>
<feGaussianBlur stdDeviation="2"/>
<feComposite in2="hardAlpha" operator="out"/>
<feColorMatrix type="matrix" values="0 0 0 0 0 0 0 0 0 0 0 0 0 0 0 0 0 0 0.25 0"/>
<feBlend mode="normal" in2="BackgroundImageFix" result="effect1_dropShadow_119_570"/>
<feBlend mode="normal" in="SourceGraphic" in2="effect1_dropShadow_119_570" result="shape"/>
</filter>
</defs>
</svg>
