<svg width="150" height="150" viewBox="0 0 150 150" fill="none" xmlns="http://www.w3.org/2000/svg">
<rect width="150" height="150" rx="5" fill="#F2F2F2"/>
<g filter="url(#filter0_d_119_556)">
<path d="M71.8787 96.1231C71.7756 96.3087 71.8272 96.2262 71.8787 96.1231V96.1231ZM114.698 81.1698C111.242 81.1687 107.831 81.9626 104.73 83.4901C103.716 81.4448 102.667 79.6573 102.495 78.3166C102.289 76.7525 102.065 75.8244 102.306 73.9681C102.547 72.1119 103.63 69.4822 103.612 69.2931C103.595 69.104 103.372 68.1587 101.155 68.1415C98.9373 68.1243 97.0295 68.5712 96.8078 69.1556C96.4162 70.2235 96.1115 71.3214 95.8968 72.4384C95.5015 74.4494 91.4641 81.6339 89.1782 85.3808C88.4219 83.9198 87.786 82.6307 87.6485 81.5995C87.4422 80.0354 87.2188 79.1073 87.4594 77.251C87.7 75.3947 88.7828 72.765 88.7657 72.5759C88.7485 72.3869 88.525 71.4416 86.3095 71.4244C84.094 71.4072 82.1845 71.8541 81.961 72.4384C81.7376 73.0228 81.497 74.3978 81.0501 75.7213C80.6032 77.0447 75.2252 89.0074 73.8175 92.1184C73.0956 93.6996 72.4769 94.9715 72.03 95.8309C71.9612 95.9684 71.9097 96.0543 71.8753 96.1231C71.9269 96.0372 71.9612 95.9512 71.9612 95.9856C71.5831 96.7247 71.3597 97.1372 71.3597 97.1372V97.1544C71.0675 97.7044 70.7409 98.2028 70.5862 98.2028C70.4831 98.2028 70.2597 96.759 70.6378 94.7824C71.4456 90.623 73.3534 84.1604 73.3363 83.937C73.3191 83.8167 73.6972 82.6995 72.0816 82.0979C70.5175 81.5307 69.9503 82.4761 69.8128 82.4761C69.6753 82.4761 69.5722 82.8198 69.5722 82.8198C69.5722 82.8198 71.3081 75.5322 66.2395 75.5322C63.0769 75.5322 58.6769 79.0041 56.5147 82.1495C55.1568 82.8886 52.2177 84.487 49.1239 86.1886C47.938 86.8417 46.7177 87.512 45.5661 88.148C45.4802 88.0621 45.4114 87.9761 45.3255 87.8902C39.174 81.3245 27.8164 76.6838 28.2976 67.8665C28.4695 64.6524 29.5867 56.2132 50.138 45.9694C66.982 37.5818 80.4485 39.8849 82.7671 45.0069C86.1016 52.3116 75.5672 65.9071 58.0753 67.8665C51.4082 68.6056 47.9036 66.0274 47.027 65.0649C46.1161 64.0508 45.9786 63.9993 45.6348 64.1883C45.0676 64.4977 45.4286 65.3915 45.6348 65.9243C46.1505 67.2821 48.2989 69.6884 51.9582 70.8915C55.1723 71.94 62.9893 72.5244 72.4408 68.8634C83.0593 64.7727 91.3249 53.3773 88.9014 43.8381C86.4333 34.1442 70.3593 30.9645 55.1603 36.3615C46.1041 39.5756 36.3105 44.6287 29.2653 51.2116C20.8966 59.0492 19.5577 65.8727 20.1077 68.7259C22.0653 78.8494 36.0183 85.4495 41.6026 90.3308C41.3276 90.4855 41.0698 90.623 40.8292 90.7605C38.0293 92.1527 27.3918 97.7215 24.7294 103.6C21.7216 110.269 25.2279 115.047 27.5293 115.7C34.7121 117.694 42.0667 114.101 46.0181 108.206C49.9696 102.311 49.49 94.6106 47.6681 91.1043C47.651 91.0527 47.6166 91.0183 47.5994 90.9668C48.3213 90.5371 49.0604 90.1074 49.7994 89.6777C51.2243 88.8355 52.6165 88.0621 53.8368 87.3917C53.1493 89.248 52.6509 91.4824 52.393 94.7137C52.0837 98.495 53.6477 103.393 55.6759 105.319C56.5697 106.161 57.6508 106.178 58.3211 106.178C60.693 106.178 61.7586 104.218 62.9429 101.881C64.4038 99.0278 65.6929 95.7106 65.6929 95.7106C65.6929 95.7106 64.0772 104.683 68.4945 104.683C70.1084 104.683 71.724 102.603 72.4477 101.537V101.554C72.4477 101.554 72.482 101.486 72.568 101.348C72.7398 101.09 72.8258 100.936 72.8258 100.936V100.884C73.4789 99.7669 74.9055 97.2059 77.0522 92.9777C79.8366 87.512 82.499 80.6885 82.499 80.6885C82.7563 82.1885 83.1123 83.6699 83.5647 85.123C84.0459 86.7558 85.06 88.5433 85.8678 90.2793C85.2147 91.173 84.8194 91.6887 84.8194 91.6887C84.8206 91.7019 84.8267 91.7141 84.8365 91.723C84.3209 92.4105 83.7365 93.1496 83.135 93.8715C80.9367 96.484 78.3224 99.4747 77.9787 100.334C77.5661 101.348 77.6693 102.104 78.4599 102.689C79.0443 103.136 80.0756 103.204 81.1567 103.118C83.1332 102.981 84.5255 102.5 85.1958 102.19C86.4315 101.747 87.5995 101.134 88.666 100.368C90.8144 98.7872 92.1207 96.5184 92.0004 93.5277C91.9316 91.8777 91.3988 90.2277 90.7457 88.6808C90.9347 88.4058 91.141 88.1136 91.3301 87.8214C94.7315 82.8542 97.3612 77.4022 97.3612 77.4022C97.6185 78.9022 97.9745 80.3836 98.4269 81.8367C98.8394 83.2289 99.6455 84.7586 100.385 86.2539C97.1893 88.8493 95.2128 91.8571 94.5253 93.8337C93.2534 97.4947 94.2502 99.1447 96.1237 99.5228C96.9659 99.6947 98.169 99.2994 99.0628 98.9212C100.39 98.4791 101.642 97.8357 102.774 97.0134C104.922 95.4321 107 93.2149 106.863 90.2071C106.811 88.8493 106.433 87.4914 105.934 86.1852C108.633 85.0508 112.137 84.432 116.606 84.9476C126.176 86.0648 128.05 92.0462 127.689 94.5384C127.328 97.0306 125.317 98.4228 124.647 98.8353C123.976 99.2478 123.77 99.4025 123.822 99.7119C123.908 100.159 124.217 100.142 124.784 100.038C125.575 99.9009 129.801 98.0103 129.99 93.3868C130.265 87.543 124.647 81.1148 114.693 81.1663L114.698 81.1698ZM40.9323 106.04C37.7715 109.495 33.337 110.801 31.4309 109.701C29.3856 108.512 30.1934 103.428 34.0933 99.7463C36.4652 97.5119 39.5229 95.4493 41.551 94.1774C42.0151 93.9024 42.6854 93.4899 43.5104 92.9915C43.6479 92.9056 43.7167 92.8712 43.7167 92.8712C43.8714 92.768 44.0433 92.6821 44.2151 92.579C45.64 97.804 44.2667 102.41 40.9323 106.037V106.04ZM64.0257 90.3308C62.9257 93.0293 60.607 99.9044 59.1977 99.5434C57.9945 99.2341 57.2554 93.9918 58.957 88.8355C59.8164 86.2402 61.6383 83.1464 62.7211 81.9432C64.4554 80.001 66.3632 79.3823 66.8101 80.1557C67.4117 81.1698 64.7132 88.6464 64.0257 90.3308ZM83.104 99.4403C82.64 99.6809 82.2103 99.8356 82.004 99.7153C81.8493 99.6294 82.1931 99.3028 82.1931 99.3028C82.1931 99.3028 84.5822 96.7418 85.5275 95.5731C86.0775 94.8856 86.7134 94.0778 87.3992 93.184C87.3992 93.2699 87.4164 93.3559 87.4164 93.459C87.3941 96.5356 84.4395 98.6153 83.0989 99.4403H83.104ZM97.8133 96.0887C97.4695 95.8481 97.5211 95.0403 98.6726 92.5309C99.1195 91.5512 100.149 89.9011 101.938 88.3199C102.141 88.9184 102.251 89.5444 102.265 90.1761C102.248 94.0434 99.4805 95.4871 97.815 96.0887H97.8133Z" fill="#C51010"/>
</g>
<defs>
<filter id="filter0_d_119_556" x="16" y="33.7462" width="118" height="90.5077" filterUnits="userSpaceOnUse" color-interpolation-filters="sRGB">
<feFlood flood-opacity="0" result="BackgroundImageFix"/>
<feColorMatrix in="SourceAlpha" type="matrix" values="0 0 0 0 0 0 0 0 0 0 0 0 0 0 0 0 0 0 127 0" result="hardAlpha"/>
<feOffset dy="4"/>
<feGaussianBlur stdDeviation="2"/>
<feComposite in2="hardAlpha" operator="out"/>
<feColorMatrix type="matrix" values="0 0 0 0 0 0 0 0 0 0 0 0 0 0 0 0 0 0 0.25 0"/>
<feBlend mode="normal" in2="BackgroundImageFix" result="effect1_dropShadow_119_556"/>
<feBlend mode="normal" in="SourceGraphic" in2="effect1_dropShadow_119_556" result="shape"/>
</filter>
</defs>
</svg>
