<svg width="26" height="26" viewBox="0 0 26 26" fill="none" xmlns="http://www.w3.org/2000/svg">
<g clip-path="url(#clip0_117_331)">
<path d="M8.99121 19.4546C8.99121 19.5522 8.87891 19.6304 8.7373 19.6304C8.57617 19.645 8.46387 19.5669 8.46387 19.4546C8.46387 19.3569 8.57617 19.2788 8.71777 19.2788C8.86426 19.2642 8.99121 19.3423 8.99121 19.4546ZM7.47266 19.2349C7.43848 19.3325 7.53613 19.4448 7.68262 19.4741C7.80957 19.5229 7.95605 19.4741 7.98535 19.3765C8.01465 19.2788 7.92188 19.1665 7.77539 19.1226C7.64844 19.0884 7.50684 19.1372 7.47266 19.2349ZM9.63086 19.1519C9.48926 19.186 9.3916 19.2788 9.40625 19.3911C9.4209 19.4888 9.54785 19.5522 9.69434 19.5181C9.83594 19.4839 9.93359 19.3911 9.91895 19.2935C9.9043 19.2007 9.77246 19.1372 9.63086 19.1519ZM12.8438 0.440918C6.07129 0.440918 0.890625 5.58252 0.890625 12.355C0.890625 17.77 4.29883 22.4038 9.16699 24.0347C9.79199 24.147 10.0117 23.7612 10.0117 23.4438C10.0117 23.1411 9.99707 21.4712 9.99707 20.4458C9.99707 20.4458 6.5791 21.1782 5.86133 18.9907C5.86133 18.9907 5.30469 17.5698 4.50391 17.2036C4.50391 17.2036 3.38574 16.437 4.58203 16.4517C4.58203 16.4517 5.79785 16.5493 6.4668 17.7114C7.53613 19.5962 9.32812 19.0542 10.0264 18.7319C10.1387 17.9507 10.4561 17.4087 10.8076 17.0864C8.07812 16.7837 5.32422 16.3882 5.32422 11.6909C5.32422 10.3481 5.69531 9.67432 6.47656 8.81494C6.34961 8.49756 5.93457 7.18896 6.60352 5.49951C7.62402 5.18213 9.97266 6.81787 9.97266 6.81787C10.9492 6.54443 11.999 6.40283 13.0391 6.40283C14.0791 6.40283 15.1289 6.54443 16.1055 6.81787C16.1055 6.81787 18.4541 5.17725 19.4746 5.49951C20.1436 7.19385 19.7285 8.49756 19.6016 8.81494C20.3828 9.6792 20.8613 10.353 20.8613 11.6909C20.8613 16.4028 17.9854 16.7788 15.2559 17.0864C15.7051 17.4722 16.0859 18.2046 16.0859 19.3521C16.0859 20.9976 16.0713 23.0337 16.0713 23.4341C16.0713 23.7515 16.2959 24.1372 16.916 24.0249C21.7988 22.4038 25.1094 17.77 25.1094 12.355C25.1094 5.58252 19.6162 0.440918 12.8438 0.440918ZM5.63672 17.2817C5.57324 17.3306 5.58789 17.4429 5.6709 17.5356C5.74902 17.6138 5.86133 17.6479 5.9248 17.5845C5.98828 17.5356 5.97363 17.4233 5.89062 17.3306C5.8125 17.2524 5.7002 17.2183 5.63672 17.2817ZM5.10938 16.8862C5.0752 16.9497 5.12402 17.0278 5.22168 17.0767C5.2998 17.1255 5.39746 17.1108 5.43164 17.0425C5.46582 16.979 5.41699 16.9009 5.31934 16.8521C5.22168 16.8228 5.14355 16.8374 5.10938 16.8862ZM6.69141 18.6245C6.61328 18.688 6.64258 18.8345 6.75488 18.9272C6.86719 19.0396 7.00879 19.0542 7.07227 18.9761C7.13574 18.9126 7.10645 18.7661 7.00879 18.6733C6.90137 18.561 6.75488 18.5464 6.69141 18.6245ZM6.13477 17.9067C6.05664 17.9556 6.05664 18.0825 6.13477 18.1948C6.21289 18.3071 6.34473 18.356 6.4082 18.3071C6.48633 18.2437 6.48633 18.1167 6.4082 18.0044C6.33984 17.8921 6.21289 17.8433 6.13477 17.9067Z" fill="white"/>
</g>
<defs>
<clipPath id="clip0_117_331">
<rect width="25" height="25" fill="white" transform="translate(0.5 0.050293)"/>
</clipPath>
</defs>
</svg>
