<svg width="26" height="26" viewBox="0 0 26 26" fill="none" xmlns="http://www.w3.org/2000/svg">
<g clip-path="url(#clip0_117_333)">
<path d="M17.3213 7.86279C16.6133 3.50244 14.9434 0.440918 13 0.440918C11.0566 0.440918 9.38672 3.50244 8.67871 7.86279H17.3213ZM8.3125 12.5503C8.3125 13.6343 8.37109 14.6743 8.47363 15.6753H17.5215C17.624 14.6743 17.6826 13.6343 17.6826 12.5503C17.6826 11.4663 17.624 10.4263 17.5215 9.42529H8.47363C8.37109 10.4263 8.3125 11.4663 8.3125 12.5503ZM24.167 7.86279C22.7705 4.54736 19.9434 1.98389 16.4521 0.94873C17.6436 2.59912 18.4639 5.08447 18.8936 7.86279H24.167ZM9.54297 0.94873C6.05664 1.98389 3.22461 4.54736 1.83301 7.86279H7.10645C7.53125 5.08447 8.35156 2.59912 9.54297 0.94873ZM24.6895 9.42529H19.0889C19.1914 10.4507 19.25 11.5005 19.25 12.5503C19.25 13.6001 19.1914 14.6499 19.0889 15.6753H24.6846C24.9531 14.6743 25.1045 13.6343 25.1045 12.5503C25.1045 11.4663 24.9531 10.4263 24.6895 9.42529ZM6.75 12.5503C6.75 11.5005 6.80859 10.4507 6.91113 9.42529H1.31055C1.04688 10.4263 0.890625 11.4663 0.890625 12.5503C0.890625 13.6343 1.04688 14.6743 1.31055 15.6753H6.90625C6.80859 14.6499 6.75 13.6001 6.75 12.5503ZM8.67871 17.2378C9.38672 21.5981 11.0566 24.6597 13 24.6597C14.9434 24.6597 16.6133 21.5981 17.3213 17.2378H8.67871ZM16.457 24.1519C19.9434 23.1167 22.7754 20.5532 24.1719 17.2378H18.8984C18.4688 20.0161 17.6484 22.5015 16.457 24.1519ZM1.83301 17.2378C3.22949 20.5532 6.05664 23.1167 9.54785 24.1519C8.35645 22.5015 7.53613 20.0161 7.10645 17.2378H1.83301Z" fill="white"/>
</g>
<defs>
<clipPath id="clip0_117_333">
<rect width="25" height="25" fill="white" transform="translate(0.5 0.050293)"/>
</clipPath>
</defs>
</svg>
