<svg width="66" height="66" viewBox="0 0 66 66" fill="none" xmlns="http://www.w3.org/2000/svg">
<rect width="66" height="66" rx="8" fill="#0D0D0D"/>
<path fill-rule="evenodd" clip-rule="evenodd" d="M28.715 28.4535H34.905V31.2285C35.7967 29.6325 38.0833 28.1985 41.5183 28.1985C48.1033 28.1985 49.6667 31.3755 49.6667 37.2045V48H43V38.532C43 35.2125 42.1083 33.3405 39.8383 33.3405C36.69 33.3405 35.3817 35.358 35.3817 38.5305V48H28.715V28.4535ZM17.2833 47.745H23.95V28.1985H17.2833V47.745ZM24.905 21.825C24.9052 22.3279 24.7944 22.8259 24.579 23.2899C24.3635 23.7539 24.0478 24.1748 23.65 24.528C22.844 25.2489 21.753 25.6525 20.6167 25.65C19.4823 25.6493 18.3939 25.2468 17.5867 24.5295C17.1904 24.1751 16.8756 23.7537 16.6606 23.2896C16.4455 22.8256 16.3343 22.3278 16.3333 21.825C16.3333 20.8095 16.7833 19.8375 17.5883 19.1205C18.3948 18.4022 19.4837 17.9996 20.6183 18C21.755 18 22.845 18.4035 23.65 19.1205C24.4533 19.8375 24.905 20.8095 24.905 21.825Z" fill="white"/>
</svg>
