<svg width="66" height="66" viewBox="0 0 66 66" fill="none" xmlns="http://www.w3.org/2000/svg">
<rect width="66" height="66" rx="8" fill="#0D0D0D"/>
<path d="M47.0089 18.8125C43.2679 15.0625 38.2857 13 32.9911 13C22.0625 13 13.1696 21.8929 13.1696 32.8214C13.1696 36.3125 14.0804 39.7232 15.8125 42.7321L13 53L23.5089 50.2411C26.4018 51.8214 29.6607 52.6518 32.9821 52.6518H32.9911C43.9107 52.6518 53 43.7589 53 32.8304C53 27.5357 50.75 22.5625 47.0089 18.8125ZM32.9911 49.3125C30.0268 49.3125 27.125 48.5179 24.5982 47.0179L24 46.6607L17.7679 48.2946L19.4286 42.2143L19.0357 41.5893C17.3839 38.9643 16.5179 35.9375 16.5179 32.8214C16.5179 23.7411 23.9107 16.3482 33 16.3482C37.4018 16.3482 41.5357 18.0625 44.6429 21.1786C47.75 24.2946 49.6607 28.4286 49.6518 32.8304C49.6518 41.9196 42.0714 49.3125 32.9911 49.3125ZM42.0268 36.9732C41.5357 36.7232 39.0982 35.5268 38.6429 35.3661C38.1875 35.1964 37.8571 35.1161 37.5268 35.6161C37.1964 36.1161 36.25 37.2232 35.9554 37.5625C35.6696 37.8929 35.375 37.9375 34.8839 37.6875C31.9732 36.2321 30.0625 35.0893 28.1429 31.7946C27.6339 30.9196 28.6518 30.9821 29.5982 29.0893C29.7589 28.7589 29.6786 28.4732 29.5536 28.2232C29.4286 27.9732 28.4375 25.5357 28.0268 24.5446C27.625 23.5804 27.2143 23.7143 26.9107 23.6964C26.625 23.6786 26.2946 23.6786 25.9643 23.6786C25.6339 23.6786 25.0982 23.8036 24.6429 24.2946C24.1875 24.7946 22.9107 25.9911 22.9107 28.4286C22.9107 30.8661 24.6875 33.2232 24.9286 33.5536C25.1786 33.8839 28.4196 38.8839 33.3929 41.0357C36.5357 42.3929 37.7679 42.5089 39.3393 42.2768C40.2946 42.1339 42.2679 41.0804 42.6786 39.9196C43.0893 38.7589 43.0893 37.7679 42.9643 37.5625C42.8482 37.3393 42.5179 37.2143 42.0268 36.9732Z" fill="white"/>
</svg>
