<svg width="150" height="150" viewBox="0 0 150 150" fill="none" xmlns="http://www.w3.org/2000/svg">
<rect width="150" height="150" rx="5" fill="#F2F2F2"/>
<path d="M39.4961 31C35.8721 31 33.0083 32.922 31.6523 36.25C31.2243 37.278 31.0079 38.3682 31.0039 39.4922C30.9999 43.2162 33.3998 46.2389 34.8398 48.0469C35.0918 48.3629 35.3186 48.6444 35.5586 48.9844L36.207 49.8438C36.851 50.6877 37.5844 51.645 37.8164 52.125C37.8924 52.345 37.9929 52.7307 38.1289 53.2188C38.7569 55.4788 39.929 59.679 41.793 62.875C42.545 64.163 43.6033 65.7819 44.3633 66.9219C43.8553 69.4659 42.9961 74.152 42.9961 77C42.9961 82 44.033 86.0155 46.293 89.6875C47.129 90.9995 49.6801 95 53.9961 95C55.5281 95 58.0737 94.4016 58.7617 90.6016C61.8217 94.5496 66.9961 99.5 74.9961 103C74.9961 103 59.9993 85.5018 57.3633 74.5938C57.3633 74.5938 54.4946 77.5015 52.0586 83.4375C51.3306 81.6055 50.9961 79.54 50.9961 77C50.9961 74.492 52.0993 68.8855 52.5273 66.9375L52.9023 65.2422L51.918 63.8125C51.902 63.7845 49.887 60.8756 48.707 58.8516C47.363 56.5476 46.3718 52.9823 45.8398 51.0703C45.5798 50.1383 45.3756 49.4638 45.1836 49.0078C44.4836 47.4918 43.4586 46.1604 42.5586 44.9844L42.0586 44.3203C41.8066 43.9563 41.4737 43.5345 41.0977 43.0625C40.3657 42.1425 39.003 40.4281 39.043 39.3281L39.4883 39.0156L39.4961 39C42.6761 39 46.7724 41.2574 48.3164 42.1094C48.8204 42.3854 49.1907 42.5761 49.3867 42.6641L50.082 42.9688L51.4492 43.0156C53.2372 43.0556 58.6717 43.1827 62.5117 44.7188C69.5157 47.5187 73.3882 50.3215 77.3242 55.4375C86.6202 67.5255 90.05 83.1799 90.082 83.3359L90.582 85.5938L92.7695 86.3047C92.8455 86.3327 98.9678 88.3786 104.676 93.7266C97.4958 95.5026 94.9961 99 94.9961 99C94.9961 99 96.9001 102.712 105.996 108.5C111.496 112 114.496 114.5 118.996 119C118.996 119 114.499 108.999 108.215 101.031C112.999 99.4993 118.879 98.7031 118.879 98.7031L115.238 93.6562C109.246 85.3483 101.211 81.1554 97.3867 79.5234C96.0587 74.4594 92.048 61.4585 83.668 50.5625C78.872 44.3265 73.7685 40.5972 65.4805 37.2812C60.5725 35.3212 54.671 35.0874 52.043 35.0234C49.743 33.7594 44.6321 31 39.4961 31ZM55.7461 47C55.7461 47 53.9961 47 51.9961 47.5L57.4961 54.9922C58.9961 53.0002 58.9961 50.6719 58.9961 50.6719C58.9961 50.6719 57.9981 48 55.7461 47Z" fill="#C51010"/>
</svg>
