<svg width="150" height="150" viewBox="0 0 150 150" fill="none" xmlns="http://www.w3.org/2000/svg">
<rect width="150" height="150" rx="5" fill="#F2F2F2"/>
<g filter="url(#filter0_d_119_541)">
<path d="M30 22.5L38.1797 115.266L75 127.5L111.82 115.266L120 22.5H30ZM103.383 41.25L102.258 52.3359L75.2344 63.8906L75.1641 63.9141H101.297L98.2969 98.2734L75.2812 105L52.125 98.1562L50.625 80.8359H62.0859L62.8359 89.8125L75.1641 92.9297L87.9844 89.3203L88.8516 74.8828L49.875 74.7656V74.7422L49.8281 74.7656L48.9844 63.9141L75.2578 52.9688L76.7812 52.3359H47.9766L46.6172 41.25H103.383Z" fill="#C51010"/>
</g>
<defs>
<filter id="filter0_d_119_541" x="27" y="22.5" width="96" height="111" filterUnits="userSpaceOnUse" color-interpolation-filters="sRGB">
<feFlood flood-opacity="0" result="BackgroundImageFix"/>
<feColorMatrix in="SourceAlpha" type="matrix" values="0 0 0 0 0 0 0 0 0 0 0 0 0 0 0 0 0 0 127 0" result="hardAlpha"/>
<feOffset dy="3"/>
<feGaussianBlur stdDeviation="1.5"/>
<feComposite in2="hardAlpha" operator="out"/>
<feColorMatrix type="matrix" values="0 0 0 0 0 0 0 0 0 0 0 0 0 0 0 0 0 0 0.25 0"/>
<feBlend mode="normal" in2="BackgroundImageFix" result="effect1_dropShadow_119_541"/>
<feBlend mode="normal" in="SourceGraphic" in2="effect1_dropShadow_119_541" result="shape"/>
</filter>
</defs>
</svg>
