<svg width="30" height="28" viewBox="0 0 30 28" fill="none" xmlns="http://www.w3.org/2000/svg">
<path fill-rule="evenodd" clip-rule="evenodd" d="M11.7862 10.4639H16.4287V12.6222C17.0975 11.3809 18.8125 10.2655 21.3888 10.2655C26.3275 10.2655 27.5 12.7365 27.5 17.2702V25.6667H22.5V18.3027C22.5 15.7209 21.8313 14.2649 20.1288 14.2649C17.7675 14.2649 16.7862 15.834 16.7862 18.3015V25.6667H11.7862V10.4639V10.4639ZM3.2125 25.4684H8.2125V10.2655H3.2125V25.4684V25.4684ZM8.92875 5.30837C8.92894 5.69953 8.84582 6.08681 8.68423 6.44773C8.52265 6.80864 8.28581 7.13597 7.9875 7.41071C7.383 7.97144 6.56476 8.2853 5.7125 8.28337C4.86174 8.28284 4.04539 7.96977 3.44 7.41187C3.14276 7.13621 2.90673 6.8085 2.74543 6.44754C2.58413 6.08659 2.50072 5.69947 2.5 5.30837C2.5 4.51854 2.8375 3.76254 3.44125 3.20487C4.04611 2.64623 4.8628 2.33302 5.71375 2.33337C6.56625 2.33337 7.38375 2.64721 7.9875 3.20487C8.59 3.76254 8.92875 4.51854 8.92875 5.30837Z" fill="white"/>
</svg>
