<svg width="150" height="150" viewBox="0 0 150 150" fill="none" xmlns="http://www.w3.org/2000/svg">
<rect width="150" height="150" rx="5" fill="#F2F2F2"/>
<g filter="url(#filter0_d_121_584)">
<path d="M40 30C34.4772 30 30 34.4772 30 40V110C30 115.523 34.4772 120 40 120H110C115.523 120 120 115.523 120 110V40C120 34.4772 115.523 30 110 30H40ZM83.33 77.255H72.74V110H64.205V77.255H53.835V70H83.33V77.255ZM84.99 108.13V99.375C84.99 99.375 89.77 102.98 95.51 102.98C101.25 102.98 101.025 99.23 101.025 98.715C101.025 93.27 84.77 93.27 84.77 81.21C84.77 64.805 108.455 71.28 108.455 71.28L108.16 79.075C108.16 79.075 104.19 76.425 99.7 76.425C95.215 76.425 93.595 78.56 93.595 80.84C93.595 86.725 110 86.135 110 97.98C110 116.22 84.99 108.13 84.99 108.13Z" fill="#C51010"/>
</g>
<defs>
<filter id="filter0_d_121_584" x="26" y="30" width="98" height="98" filterUnits="userSpaceOnUse" color-interpolation-filters="sRGB">
<feFlood flood-opacity="0" result="BackgroundImageFix"/>
<feColorMatrix in="SourceAlpha" type="matrix" values="0 0 0 0 0 0 0 0 0 0 0 0 0 0 0 0 0 0 127 0" result="hardAlpha"/>
<feOffset dy="4"/>
<feGaussianBlur stdDeviation="2"/>
<feComposite in2="hardAlpha" operator="out"/>
<feColorMatrix type="matrix" values="0 0 0 0 0 0 0 0 0 0 0 0 0 0 0 0 0 0 0.25 0"/>
<feBlend mode="normal" in2="BackgroundImageFix" result="effect1_dropShadow_121_584"/>
<feBlend mode="normal" in="SourceGraphic" in2="effect1_dropShadow_121_584" result="shape"/>
</filter>
</defs>
</svg>
