<svg width="470" height="394" viewBox="0 0 470 394" fill="none" xmlns="http://www.w3.org/2000/svg">
<path d="M469.832 129.699C470.06 135.286 469.516 140.903 468.327 146.367C452.777 217.835 410.725 288.119 364.5 345.419C333 369.419 301.567 393.273 253.926 393.419C113.687 393.419 0 310.421 0 204.751C0 99.0811 113.687 13.4187 253.926 13.4187C390.351 13.4187 465.827 31.4393 469.832 129.699Z" fill="#0D0D0D"/>
<path d="M447 154.419C440.644 223.638 412.644 308.164 352.5 356.044C323.414 379.198 286.81 393.782 241.5 393.919C108.123 393.919 -2.3049e-05 316.054 -2.3049e-05 216.919C-2.3049e-05 117.784 108.123 37.4187 241.5 37.4187C374.877 37.4187 447 55.2836 447 154.419Z" fill="#0D0D0D"/>
<path d="M227.696 392.419C226.138 392.454 225.57 392.419 224 392.419C186.712 392.419 128.561 380.521 86 352.919C82.4787 350.635 84.4586 352.308 81 349.919L89.7777 319.388L181.608 307.182L227.696 342.464V392.419Z" fill="#2F2E41"/>
<path d="M233.075 62.3832H219.989C219.584 62.3834 219.195 62.5446 218.909 62.8315C218.622 63.1184 218.461 63.5075 218.461 63.9133V77.0198C218.461 77.2204 218.501 77.419 218.578 77.6042C218.655 77.7895 218.767 77.9577 218.909 78.0993C219.051 78.2409 219.22 78.353 219.405 78.4294C219.59 78.5057 219.789 78.5447 219.989 78.5442H233.075C233.48 78.5443 233.868 78.3839 234.154 78.0982C234.441 77.8125 234.602 77.4247 234.604 77.0198V63.9133C234.602 63.5078 234.441 63.1193 234.155 62.8326C233.868 62.5459 233.48 62.3843 233.075 62.3832Z" fill="#C5C5C5"/>
<path d="M233.075 84.7179H219.989C219.584 84.7181 219.195 84.8794 218.909 85.1663C218.622 85.4532 218.461 85.8423 218.461 86.2481V99.3546C218.461 99.5552 218.501 99.7538 218.578 99.9391C218.655 100.124 218.767 100.293 218.909 100.434C219.051 100.576 219.22 100.688 219.405 100.764C219.59 100.84 219.789 100.879 219.989 100.879H233.075C233.48 100.879 233.868 100.719 234.154 100.433C234.441 100.147 234.602 99.7595 234.604 99.3546V86.2481C234.602 85.8426 234.441 85.4541 234.155 85.1674C233.868 84.8806 233.48 84.7191 233.075 84.7179Z" fill="#E6E6E6"/>
<path d="M233.075 107.053H219.989C219.584 107.053 219.195 107.214 218.909 107.501C218.622 107.788 218.461 108.177 218.461 108.583V121.683C218.461 121.885 218.5 122.084 218.577 122.269C218.653 122.455 218.766 122.624 218.908 122.766C219.05 122.908 219.218 123.021 219.404 123.098C219.59 123.175 219.789 123.214 219.989 123.214H233.075C233.48 123.213 233.869 123.052 234.156 122.765C234.442 122.478 234.603 122.089 234.604 121.683V108.583C234.602 108.177 234.441 107.789 234.155 107.502C233.868 107.215 233.48 107.054 233.075 107.053Z" fill="#E6E6E6"/>
<path d="M234.58 130.647C234.515 130.294 234.329 129.976 234.054 129.746C233.779 129.516 233.433 129.389 233.075 129.387H219.989C219.584 129.387 219.195 129.549 218.909 129.836C218.622 130.123 218.461 130.512 218.461 130.917V144.018C218.461 144.219 218.5 144.418 218.577 144.604C218.653 144.79 218.766 144.959 218.908 145.101C219.05 145.243 219.218 145.356 219.404 145.433C219.59 145.509 219.789 145.549 219.989 145.548H233.075C233.48 145.548 233.869 145.387 234.156 145.1C234.442 144.813 234.603 144.424 234.604 144.018V130.917C234.605 130.827 234.597 130.736 234.58 130.647Z" fill="#E6E6E6"/>
<path d="M233.669 151.84C233.481 151.762 233.279 151.722 233.075 151.722H219.989C219.789 151.722 219.59 151.761 219.404 151.838C219.218 151.914 219.05 152.027 218.908 152.169C218.766 152.311 218.653 152.48 218.577 152.666C218.5 152.852 218.461 153.051 218.461 153.252V166.353C218.46 166.554 218.499 166.753 218.576 166.939C218.652 167.125 218.765 167.295 218.907 167.437C219.049 167.579 219.218 167.692 219.403 167.768C219.589 167.845 219.788 167.884 219.989 167.883H233.075C233.481 167.883 233.869 167.722 234.156 167.435C234.442 167.148 234.604 166.759 234.604 166.353V153.252C234.603 152.951 234.514 152.657 234.348 152.406C234.182 152.155 233.946 151.958 233.669 151.84Z" fill="#E6E6E6"/>
<path d="M260.564 62.3832H247.478C247.073 62.3834 246.684 62.5446 246.397 62.8315C246.111 63.1184 245.95 63.5075 245.949 63.9133V77.0198C245.95 77.2204 245.989 77.419 246.066 77.6042C246.143 77.7895 246.256 77.9577 246.398 78.0993C246.54 78.2409 246.708 78.353 246.894 78.4294C247.079 78.5057 247.277 78.5447 247.478 78.5442H260.564C260.968 78.5443 261.356 78.3839 261.643 78.0982C261.929 77.8125 262.091 77.4247 262.092 77.0198V63.9133C262.091 63.5078 261.93 63.1193 261.643 62.8326C261.357 62.5459 260.969 62.3843 260.564 62.3832Z" fill="#E6E6E6"/>
<path d="M260.564 84.7179H247.478C247.073 84.7181 246.684 84.8794 246.397 85.1663C246.111 85.4532 245.95 85.8423 245.949 86.2481V99.3546C245.95 99.5552 245.989 99.7538 246.066 99.9391C246.143 100.124 246.256 100.293 246.398 100.434C246.54 100.576 246.708 100.688 246.894 100.764C247.079 100.84 247.277 100.879 247.478 100.879H260.564C260.968 100.879 261.356 100.719 261.643 100.433C261.929 100.147 262.091 99.7595 262.092 99.3546V86.2481C262.091 85.8426 261.93 85.4541 261.643 85.1674C261.357 84.8806 260.969 84.7191 260.564 84.7179Z" fill="#A80101"/>
<path d="M260.564 107.053H247.478C247.073 107.053 246.684 107.214 246.397 107.501C246.111 107.788 245.95 108.177 245.949 108.583V121.683C245.949 121.885 245.988 122.084 246.065 122.269C246.142 122.455 246.254 122.624 246.396 122.766C246.538 122.908 246.707 123.021 246.893 123.098C247.078 123.175 247.277 123.214 247.478 123.214H260.564C260.969 123.213 261.358 123.052 261.644 122.765C261.931 122.478 262.092 122.089 262.092 121.683V108.583C262.091 108.177 261.93 107.789 261.643 107.502C261.357 107.215 260.969 107.054 260.564 107.053Z" fill="#A80101"/>
<path d="M260.564 129.387H247.478C247.157 129.387 246.845 129.489 246.586 129.677C246.326 129.865 246.132 130.13 246.032 130.435C245.977 130.59 245.95 130.753 245.949 130.917V144.018C245.949 144.219 245.988 144.418 246.065 144.604C246.142 144.79 246.254 144.959 246.396 145.101C246.538 145.243 246.707 145.356 246.892 145.433C247.078 145.509 247.277 145.549 247.478 145.548H260.564C260.969 145.548 261.358 145.387 261.644 145.1C261.931 144.813 262.092 144.424 262.092 144.018V130.917C262.091 130.512 261.93 130.123 261.643 129.837C261.357 129.55 260.969 129.388 260.564 129.387Z" fill="#A80101"/>
<path d="M260.564 151.722H247.478C247.277 151.722 247.078 151.761 246.893 151.838C246.707 151.914 246.538 152.027 246.396 152.169C246.254 152.311 246.142 152.48 246.065 152.666C245.988 152.852 245.949 153.051 245.949 153.252V166.353C245.949 166.554 245.988 166.753 246.065 166.939C246.142 167.125 246.254 167.293 246.396 167.436C246.538 167.578 246.707 167.691 246.893 167.767C247.078 167.844 247.277 167.883 247.478 167.883H260.564C260.969 167.883 261.358 167.722 261.644 167.435C261.931 167.148 262.092 166.759 262.092 166.353V153.252C262.092 152.846 261.931 152.457 261.644 152.17C261.358 151.883 260.969 151.722 260.564 151.722Z" fill="#E6E6E6"/>
<path d="M288.052 62.3832H274.966C274.561 62.3834 274.172 62.5446 273.886 62.8315C273.599 63.1184 273.438 63.5075 273.438 63.9133V77.0198C273.438 77.2204 273.478 77.419 273.555 77.6042C273.632 77.7895 273.744 77.9577 273.886 78.0993C274.028 78.2409 274.197 78.353 274.382 78.4294C274.567 78.5057 274.766 78.5447 274.966 78.5442H288.052C288.457 78.5443 288.845 78.3839 289.131 78.0982C289.418 77.8125 289.579 77.4247 289.581 77.0198V63.9133C289.579 63.5078 289.418 63.1193 289.132 62.8326C288.845 62.5459 288.457 62.3843 288.052 62.3832Z" fill="#A80101"/>
<path d="M288.052 84.7179H274.966C274.561 84.7181 274.172 84.8794 273.886 85.1663C273.599 85.4532 273.438 85.8423 273.438 86.2481V99.3546C273.438 99.5552 273.478 99.7538 273.555 99.9391C273.632 100.124 273.744 100.293 273.886 100.434C274.028 100.576 274.197 100.688 274.382 100.764C274.567 100.84 274.766 100.879 274.966 100.879H288.052C288.457 100.879 288.845 100.719 289.131 100.433C289.418 100.147 289.579 99.7595 289.581 99.3546V86.2481C289.579 85.8426 289.418 85.4541 289.132 85.1674C288.845 84.8806 288.457 84.7191 288.052 84.7179Z" fill="#A80101"/>
<path d="M288.052 107.053H274.966C274.561 107.053 274.172 107.214 273.886 107.501C273.599 107.788 273.438 108.177 273.438 108.583V121.683C273.438 121.885 273.477 122.084 273.553 122.269C273.63 122.455 273.743 122.624 273.885 122.766C274.027 122.908 274.195 123.021 274.381 123.098C274.567 123.175 274.765 123.214 274.966 123.214H288.052C288.457 123.213 288.846 123.052 289.133 122.765C289.419 122.478 289.58 122.089 289.581 121.683V108.583C289.579 108.177 289.418 107.789 289.132 107.502C288.845 107.215 288.457 107.054 288.052 107.053Z" fill="#E6E6E6"/>
<path d="M288.052 129.387H274.966C274.561 129.387 274.172 129.549 273.886 129.836C273.599 130.123 273.438 130.512 273.438 130.917V144.018C273.438 144.219 273.477 144.418 273.553 144.604C273.63 144.79 273.743 144.959 273.885 145.101C274.027 145.243 274.195 145.356 274.381 145.433C274.567 145.509 274.765 145.549 274.966 145.548H288.052C288.457 145.548 288.846 145.387 289.133 145.1C289.419 144.813 289.58 144.424 289.581 144.018V130.917C289.579 130.512 289.418 130.123 289.132 129.837C288.845 129.55 288.457 129.388 288.052 129.387Z" fill="#A80101"/>
<path d="M288.052 151.722H274.966C274.765 151.722 274.567 151.761 274.381 151.838C274.195 151.914 274.027 152.027 273.885 152.169C273.743 152.311 273.63 152.48 273.553 152.666C273.477 152.852 273.438 153.051 273.438 153.252V166.353C273.438 166.554 273.477 166.753 273.553 166.939C273.63 167.125 273.743 167.293 273.885 167.436C274.027 167.578 274.195 167.691 274.381 167.767C274.567 167.844 274.765 167.883 274.966 167.883H288.052C288.457 167.883 288.846 167.722 289.133 167.435C289.419 167.148 289.58 166.759 289.581 166.353V153.252C289.58 152.846 289.419 152.457 289.133 152.17C288.846 151.883 288.457 151.722 288.052 151.722Z" fill="#A80101"/>
<path d="M315.541 62.3832H302.455C302.049 62.3834 301.661 62.5446 301.374 62.8315C301.088 63.1184 300.927 63.5075 300.926 63.9133V77.0198C300.927 77.2204 300.966 77.419 301.043 77.6043C301.12 77.7895 301.233 77.9577 301.375 78.0993C301.517 78.2409 301.685 78.3531 301.871 78.4294C302.056 78.5057 302.254 78.5447 302.455 78.5442H315.541C315.945 78.5443 316.333 78.3839 316.62 78.0982C316.906 77.8125 317.068 77.4247 317.069 77.0198V63.9133C317.068 63.5078 316.906 63.1193 316.62 62.8326C316.334 62.5459 315.946 62.3843 315.541 62.3832Z" fill="#A80101"/>
<path d="M315.541 84.7179H302.455C302.049 84.7181 301.661 84.8794 301.374 85.1663C301.088 85.4532 300.927 85.8423 300.926 86.2481V99.3546C300.927 99.5552 300.966 99.7538 301.043 99.9391C301.12 100.124 301.233 100.293 301.375 100.434C301.517 100.576 301.685 100.688 301.871 100.764C302.056 100.84 302.254 100.879 302.455 100.879H315.541C315.945 100.879 316.333 100.719 316.62 100.433C316.906 100.147 317.068 99.7595 317.069 99.3546V86.2481C317.068 85.8426 316.907 85.4541 316.62 85.1674C316.334 84.8806 315.946 84.7191 315.541 84.7179Z" fill="#C5C5C5"/>
<path d="M315.541 107.053H302.455C302.049 107.053 301.661 107.214 301.374 107.501C301.088 107.788 300.927 108.177 300.926 108.583V121.683C300.926 121.885 300.965 122.084 301.042 122.269C301.119 122.455 301.231 122.624 301.373 122.766C301.515 122.908 301.684 123.021 301.869 123.098C302.055 123.175 302.254 123.214 302.455 123.214H315.541C315.946 123.213 316.335 123.052 316.621 122.765C316.908 122.478 317.069 122.089 317.069 121.683V108.583C317.068 108.177 316.907 107.789 316.62 107.502C316.334 107.215 315.946 107.054 315.541 107.053Z" fill="#A80101"/>
<path d="M315.541 129.387H302.455C302.049 129.387 301.661 129.549 301.374 129.836C301.088 130.123 300.927 130.512 300.926 130.917V144.018C300.926 144.219 300.965 144.418 301.042 144.604C301.119 144.79 301.231 144.959 301.373 145.101C301.515 145.243 301.684 145.356 301.869 145.433C302.055 145.509 302.254 145.549 302.455 145.548H315.541C315.946 145.548 316.335 145.387 316.621 145.1C316.908 144.813 317.069 144.424 317.069 144.018V130.917C317.068 130.512 316.907 130.123 316.62 129.837C316.334 129.55 315.946 129.388 315.541 129.387Z" fill="#E6E6E6"/>
<path d="M315.541 151.722H302.455C302.254 151.722 302.055 151.761 301.869 151.838C301.684 151.914 301.515 152.027 301.373 152.169C301.231 152.311 301.119 152.48 301.042 152.666C300.965 152.852 300.926 153.051 300.926 153.252V166.353C300.926 166.554 300.965 166.753 301.042 166.939C301.119 167.125 301.231 167.293 301.373 167.436C301.515 167.578 301.684 167.691 301.869 167.767C302.055 167.844 302.254 167.883 302.455 167.883H315.541C315.946 167.883 316.335 167.722 316.621 167.435C316.908 167.148 317.069 166.759 317.069 166.353V153.252C317.069 152.846 316.908 152.457 316.621 152.17C316.335 151.883 315.946 151.722 315.541 151.722Z" fill="#A80101"/>
<path d="M343.029 62.3832H329.937C329.533 62.3846 329.146 62.5464 328.86 62.8332C328.575 63.12 328.415 63.5084 328.415 63.9133V77.0198C328.415 77.4241 328.575 77.8117 328.861 78.0976C329.146 78.3834 329.534 78.5441 329.937 78.5442H343.029C343.434 78.5443 343.822 78.3839 344.108 78.0982C344.395 77.8125 344.556 77.4247 344.558 77.0198V63.9133C344.556 63.5078 344.395 63.1193 344.109 62.8326C343.822 62.5459 343.434 62.3843 343.029 62.3832Z" fill="#C5C5C5"/>
<path d="M343.029 84.7179H329.937C329.533 84.7193 329.146 84.8812 328.86 85.168C328.575 85.4548 328.415 85.8432 328.415 86.2481V99.3546C328.415 99.7589 328.575 100.147 328.861 100.432C329.146 100.718 329.534 100.879 329.937 100.879H343.029C343.434 100.879 343.822 100.719 344.108 100.433C344.395 100.147 344.556 99.7595 344.558 99.3546V86.2481C344.556 85.8426 344.395 85.4541 344.109 85.1674C343.822 84.8806 343.434 84.7191 343.029 84.7179Z" fill="#C5C5C5"/>
<path d="M343.029 107.053H329.937C329.533 107.054 329.146 107.216 328.86 107.503C328.575 107.79 328.415 108.178 328.415 108.583V121.683C328.414 121.884 328.453 122.083 328.53 122.268C328.606 122.454 328.718 122.622 328.859 122.765C329.001 122.907 329.169 123.02 329.354 123.097C329.539 123.174 329.737 123.213 329.937 123.214H343.029C343.434 123.213 343.823 123.052 344.11 122.765C344.396 122.478 344.557 122.089 344.558 121.683V108.583C344.556 108.177 344.395 107.789 344.109 107.502C343.822 107.215 343.434 107.054 343.029 107.053Z" fill="#C5C5C5"/>
<path d="M343.029 129.387H329.937C329.533 129.389 329.146 129.551 328.86 129.837C328.575 130.124 328.415 130.513 328.415 130.917V144.018C328.414 144.219 328.453 144.417 328.529 144.603C328.606 144.789 328.718 144.957 328.859 145.099C329.001 145.241 329.169 145.354 329.354 145.431C329.539 145.508 329.737 145.548 329.937 145.548H343.029C343.434 145.548 343.823 145.387 344.11 145.1C344.396 144.813 344.557 144.424 344.558 144.018V130.917C344.556 130.512 344.395 130.123 344.109 129.837C343.822 129.55 343.434 129.388 343.029 129.387Z" fill="#A80101"/>
<path d="M343.029 151.722H329.937C329.737 151.722 329.539 151.762 329.354 151.839C329.169 151.916 329.001 152.029 328.859 152.171C328.718 152.313 328.606 152.482 328.529 152.667C328.453 152.853 328.414 153.051 328.415 153.252V166.353C328.414 166.553 328.453 166.752 328.529 166.938C328.606 167.123 328.718 167.292 328.859 167.434C329.001 167.576 329.169 167.689 329.354 167.766C329.539 167.843 329.737 167.883 329.937 167.883H343.029C343.434 167.883 343.823 167.722 344.11 167.435C344.396 167.148 344.557 166.759 344.558 166.353V153.252C344.557 152.846 344.396 152.457 344.11 152.17C343.823 151.883 343.434 151.722 343.029 151.722Z" fill="#E6E6E6"/>
<path d="M370.518 62.3832H357.426C357.022 62.3846 356.634 62.5464 356.349 62.8332C356.063 63.12 355.903 63.5084 355.903 63.9133V77.0198C355.903 77.4241 356.064 77.8117 356.349 78.0976C356.635 78.3834 357.022 78.5441 357.426 78.5442H370.518C370.922 78.5443 371.31 78.3839 371.596 78.0982C371.883 77.8125 372.045 77.4247 372.046 77.0198V63.9133C372.045 63.5078 371.883 63.1193 371.597 62.8326C371.311 62.5459 370.923 62.3844 370.518 62.3832Z" fill="#C5C5C5"/>
<path d="M370.518 84.7179H357.426C357.022 84.7193 356.634 84.8812 356.349 85.168C356.063 85.4548 355.903 85.8432 355.903 86.2481V99.3546C355.903 99.7589 356.064 100.147 356.349 100.432C356.635 100.718 357.022 100.879 357.426 100.879H370.518C370.922 100.879 371.31 100.719 371.596 100.433C371.883 100.147 372.045 99.7595 372.046 99.3546V86.2481C372.045 85.8426 371.883 85.4541 371.597 85.1674C371.311 84.8807 370.923 84.7191 370.518 84.7179Z" fill="#C5C5C5"/>
<path d="M370.518 107.053H357.426C357.022 107.054 356.634 107.216 356.349 107.503C356.063 107.79 355.903 108.178 355.903 108.583V121.683C355.903 121.884 355.942 122.083 356.018 122.268C356.094 122.454 356.206 122.622 356.348 122.765C356.489 122.907 356.657 123.02 356.842 123.097C357.027 123.174 357.226 123.213 357.426 123.214H370.518C370.923 123.213 371.312 123.052 371.598 122.765C371.885 122.478 372.046 122.089 372.046 121.683V108.583C372.045 108.177 371.883 107.789 371.597 107.502C371.311 107.215 370.923 107.054 370.518 107.053Z" fill="#A80101"/>
<path d="M370.518 129.387H357.426C357.022 129.389 356.634 129.551 356.349 129.837C356.063 130.124 355.903 130.513 355.903 130.917V144.018C355.903 144.219 355.942 144.417 356.018 144.603C356.094 144.789 356.206 144.957 356.348 145.099C356.489 145.241 356.657 145.354 356.842 145.431C357.027 145.508 357.226 145.548 357.426 145.548H370.518C370.923 145.548 371.312 145.387 371.598 145.1C371.885 144.813 372.046 144.424 372.046 144.018V130.917C372.045 130.512 371.883 130.123 371.597 129.837C371.311 129.55 370.923 129.388 370.518 129.387Z" fill="#A80101"/>
<path d="M370.518 151.722H357.426C357.226 151.722 357.027 151.762 356.842 151.839C356.657 151.916 356.489 152.029 356.348 152.171C356.206 152.313 356.094 152.482 356.018 152.667C355.942 152.853 355.903 153.051 355.903 153.252V166.353C355.903 166.553 355.942 166.752 356.018 166.938C356.094 167.123 356.206 167.292 356.348 167.434C356.489 167.576 356.657 167.689 356.842 167.766C357.027 167.843 357.226 167.883 357.426 167.883H370.518C370.923 167.883 371.312 167.722 371.598 167.435C371.885 167.148 372.046 166.759 372.046 166.353V153.252C372.046 152.846 371.885 152.457 371.598 152.17C371.312 151.883 370.923 151.722 370.518 151.722Z" fill="#C5C5C5"/>
<path d="M398.006 62.3832H384.914C384.51 62.3846 384.123 62.5464 383.837 62.8332C383.552 63.12 383.392 63.5084 383.392 63.9133V77.0198C383.392 77.4241 383.552 77.8117 383.838 78.0976C384.123 78.3834 384.511 78.5441 384.914 78.5442H398.006C398.41 78.5443 398.798 78.3839 399.085 78.0982C399.371 77.8125 399.533 77.4247 399.535 77.0198V63.9133C399.533 63.5078 399.372 63.1193 399.086 62.8326C398.799 62.5459 398.411 62.3844 398.006 62.3832Z" fill="#A80101"/>
<path d="M398.006 84.7179H384.914C384.51 84.7193 384.123 84.8812 383.837 85.168C383.552 85.4548 383.392 85.8432 383.392 86.2481V99.3546C383.392 99.7589 383.552 100.147 383.838 100.432C384.123 100.718 384.511 100.879 384.914 100.879H398.006C398.41 100.879 398.798 100.719 399.085 100.433C399.371 100.147 399.533 99.7595 399.535 99.3546V86.2481C399.533 85.8426 399.372 85.4541 399.086 85.1674C398.799 84.8807 398.411 84.7191 398.006 84.7179Z" fill="#A80101"/>
<path d="M398.006 107.053H384.914C384.51 107.054 384.123 107.216 383.837 107.503C383.552 107.79 383.392 108.178 383.392 108.583V121.683C383.391 121.884 383.43 122.083 383.506 122.268C383.583 122.454 383.695 122.622 383.836 122.765C383.978 122.907 384.146 123.02 384.331 123.097C384.516 123.174 384.714 123.213 384.914 123.214H398.006C398.411 123.213 398.8 123.052 399.087 122.765C399.373 122.478 399.534 122.089 399.535 121.683V108.583C399.533 108.177 399.372 107.789 399.086 107.502C398.799 107.215 398.411 107.054 398.006 107.053Z" fill="#A80101"/>
<path d="M398.006 129.387H384.914C384.51 129.389 384.123 129.551 383.837 129.837C383.552 130.124 383.392 130.513 383.392 130.917V144.018C383.391 144.219 383.43 144.417 383.506 144.603C383.583 144.789 383.695 144.957 383.836 145.099C383.978 145.241 384.146 145.354 384.331 145.431C384.516 145.508 384.714 145.548 384.914 145.548H398.006C398.411 145.548 398.8 145.387 399.087 145.1C399.373 144.813 399.534 144.424 399.535 144.018V130.917C399.533 130.512 399.372 130.123 399.086 129.837C398.799 129.55 398.411 129.388 398.006 129.387Z" fill="#C5C5C5"/>
<path d="M398.006 151.722H384.914C384.714 151.722 384.516 151.762 384.331 151.839C384.146 151.916 383.978 152.029 383.836 152.171C383.695 152.313 383.583 152.482 383.506 152.667C383.43 152.853 383.391 153.051 383.392 153.252V166.353C383.391 166.553 383.43 166.752 383.506 166.938C383.583 167.123 383.695 167.292 383.836 167.434C383.978 167.576 384.146 167.689 384.331 167.766C384.516 167.843 384.714 167.883 384.914 167.883H398.006C398.411 167.883 398.8 167.722 399.087 167.435C399.373 167.148 399.534 166.759 399.535 166.353V153.252C399.534 152.846 399.373 152.457 399.087 152.17C398.8 151.883 398.411 151.722 398.006 151.722Z" fill="#A80101"/>
<path d="M425.495 62.3832H412.403C411.998 62.3846 411.611 62.5464 411.326 62.8332C411.04 63.12 410.88 63.5084 410.88 63.9133V77.0198C410.88 77.4241 411.041 77.8117 411.326 78.0976C411.612 78.3834 411.999 78.5441 412.403 78.5442H425.495C425.899 78.5443 426.287 78.3839 426.573 78.0982C426.86 77.8125 427.022 77.4247 427.023 77.0198V63.9133C427.022 63.5078 426.86 63.1193 426.574 62.8326C426.288 62.5459 425.9 62.3844 425.495 62.3832Z" fill="#A80101"/>
<path d="M425.495 84.7179H412.403C411.998 84.7193 411.611 84.8812 411.326 85.168C411.04 85.4548 410.88 85.8432 410.88 86.2481V99.3546C410.88 99.7589 411.041 100.147 411.326 100.432C411.612 100.718 411.999 100.879 412.403 100.879H425.495C425.899 100.879 426.287 100.719 426.573 100.433C426.86 100.147 427.022 99.7595 427.023 99.3546V86.2481C427.022 85.8426 426.86 85.4541 426.574 85.1674C426.288 84.8807 425.9 84.7191 425.495 84.7179Z" fill="#A80101"/>
<path d="M425.495 107.053H412.403C411.998 107.054 411.611 107.216 411.326 107.503C411.04 107.79 410.88 108.178 410.88 108.583V121.683C410.88 121.884 410.919 122.083 410.995 122.268C411.071 122.454 411.183 122.622 411.325 122.765C411.466 122.907 411.634 123.02 411.819 123.097C412.004 123.174 412.202 123.213 412.403 123.214H425.495C425.9 123.213 426.288 123.052 426.575 122.765C426.862 122.478 427.023 122.089 427.023 121.683V108.583C427.022 108.177 426.86 107.789 426.574 107.502C426.288 107.215 425.9 107.054 425.495 107.053Z" fill="#E6E6E6"/>
<path d="M425.495 129.387H412.403C411.998 129.389 411.611 129.551 411.326 129.837C411.04 130.124 410.88 130.513 410.88 130.917V144.018C410.88 144.219 410.919 144.417 410.995 144.603C411.071 144.789 411.183 144.957 411.325 145.099C411.466 145.241 411.634 145.354 411.819 145.431C412.004 145.508 412.202 145.548 412.403 145.548H425.495C425.9 145.548 426.289 145.387 426.575 145.1C426.862 144.813 427.023 144.424 427.023 144.018V130.917C427.022 130.512 426.86 130.123 426.574 129.837C426.288 129.55 425.9 129.388 425.495 129.387Z" fill="#A80101"/>
<path d="M425.495 151.722H412.403C412.202 151.722 412.004 151.762 411.819 151.839C411.634 151.916 411.466 152.029 411.325 152.171C411.183 152.313 411.071 152.482 410.995 152.667C410.919 152.853 410.88 153.051 410.88 153.252V166.353C410.88 166.553 410.919 166.752 410.995 166.938C411.071 167.123 411.183 167.292 411.325 167.434C411.466 167.576 411.634 167.689 411.819 167.766C412.004 167.843 412.202 167.883 412.403 167.883H425.495C425.9 167.883 426.289 167.722 426.575 167.435C426.862 167.148 427.023 166.759 427.023 166.353V153.252C427.023 152.846 426.862 152.457 426.575 152.17C426.289 151.883 425.9 151.722 425.495 151.722Z" fill="#A80101"/>
<path d="M452.983 62.3832H439.891C439.487 62.3846 439.1 62.5464 438.814 62.8332C438.529 63.12 438.369 63.5084 438.369 63.9133V77.0198C438.369 77.4241 438.529 77.8117 438.815 78.0976C439.1 78.3834 439.488 78.5441 439.891 78.5442H452.983C453.387 78.5443 453.775 78.3839 454.062 78.0982C454.348 77.8125 454.51 77.4247 454.511 77.0198V63.9133C454.51 63.5078 454.349 63.1193 454.063 62.8326C453.776 62.5459 453.388 62.3844 452.983 62.3832Z" fill="#E6E6E6"/>
<path d="M452.983 84.7179H439.891C439.487 84.7193 439.1 84.8812 438.814 85.168C438.529 85.4548 438.369 85.8432 438.369 86.2481V99.3546C438.369 99.7589 438.529 100.147 438.815 100.432C439.1 100.718 439.488 100.879 439.891 100.879H452.983C453.387 100.879 453.775 100.719 454.062 100.433C454.348 100.147 454.51 99.7595 454.511 99.3546V86.2481C454.51 85.8426 454.349 85.4541 454.063 85.1674C453.776 84.8807 453.388 84.7191 452.983 84.7179Z" fill="#C5C5C5"/>
<path d="M452.983 107.053H439.891C439.487 107.054 439.1 107.216 438.814 107.503C438.529 107.79 438.369 108.178 438.369 108.583V121.683C438.368 121.884 438.407 122.083 438.483 122.268C438.56 122.454 438.672 122.622 438.813 122.765C438.955 122.907 439.123 123.02 439.308 123.097C439.493 123.174 439.691 123.213 439.891 123.214H452.983C453.388 123.213 453.777 123.052 454.064 122.765C454.35 122.478 454.511 122.089 454.511 121.683V108.583C454.51 108.177 454.349 107.789 454.063 107.502C453.776 107.215 453.388 107.054 452.983 107.053Z" fill="#A80101"/>
<path d="M452.983 129.387H439.891C439.487 129.389 439.1 129.551 438.814 129.837C438.529 130.124 438.369 130.513 438.369 130.917V144.018C438.368 144.219 438.407 144.417 438.483 144.603C438.56 144.789 438.672 144.957 438.813 145.099C438.955 145.241 439.123 145.354 439.308 145.431C439.493 145.508 439.691 145.548 439.891 145.548H452.983C453.388 145.548 453.777 145.387 454.064 145.1C454.35 144.813 454.511 144.424 454.511 144.018V130.917C454.51 130.512 454.349 130.123 454.063 129.837C453.776 129.55 453.388 129.388 452.983 129.387Z" fill="#A80101"/>
<path d="M452.983 151.722H439.891C439.691 151.722 439.493 151.762 439.308 151.839C439.123 151.916 438.955 152.029 438.813 152.171C438.672 152.313 438.56 152.482 438.483 152.667C438.407 152.853 438.368 153.051 438.369 153.252V166.353C438.368 166.553 438.407 166.752 438.483 166.938C438.56 167.123 438.672 167.292 438.813 167.434C438.955 167.576 439.123 167.689 439.308 167.766C439.493 167.843 439.691 167.883 439.891 167.883H452.983C453.388 167.883 453.777 167.722 454.064 167.435C454.35 167.148 454.511 166.759 454.511 166.353V153.252C454.511 152.846 454.35 152.457 454.064 152.17C453.777 151.883 453.388 151.722 452.983 151.722Z" fill="#E6E6E6"/>
<path d="M179.578 344.878H179.213L179.525 344.837L179.578 344.878Z" fill="#2F2E41"/>
<path d="M148.256 100.641C170.438 100.641 188.42 82.6382 188.42 60.4312C188.42 38.2241 170.438 20.2217 148.256 20.2217C126.074 20.2217 108.092 38.2241 108.092 60.4312C108.092 82.6382 126.074 100.641 148.256 100.641Z" fill="#CB9A94"/>
<path d="M183.429 30.9503C183.429 30.9503 193.934 10.8456 170.823 9.01786C170.823 9.01786 151.121 -8.87477 131.039 5.74682C131.039 5.74682 120.085 5.74682 114.095 18.1564C114.095 18.1564 105.48 14.8853 103.587 23.6395C103.587 23.6395 97.2828 41.9165 103.587 58.3658C109.891 74.8152 111.985 76.6428 111.985 76.6428C111.985 76.6428 101.626 42.156 126.84 40.3282C152.054 38.5005 180.269 22.7256 182.37 42.8303C184.471 62.935 187.633 67.8886 187.633 67.8886C187.633 67.8886 207.591 39.175 183.429 30.9503Z" fill="#090909"/>
<path d="M252.151 159.526L252.022 160.209L250.57 167.883L240.535 220.968L239.941 224.093L238.695 230.703L236.99 239.719L233.21 259.699L232.129 265.426L231.723 267.574L231.582 268.327L230.459 274.254L230.118 276.043L227.379 296.365L224.986 314.074L232.993 322.089L228.219 326.868L225.086 344.836L225.092 344.877H97.2142C92.041 341.523 86.9422 338.064 81.918 334.501L82.9702 326.615C82.9702 326.615 86.5914 312.532 85.0688 310.849C83.5522 309.165 80.2248 306.158 80.2248 306.158L84.4164 296.365L84.9983 295.005L84.0225 274.742L83.999 274.254L83.6757 267.574L83.6345 266.715L83.5698 265.426L82.3295 239.719L82.3059 239.295L81.9298 231.503L81.577 224.093L81.4241 220.968L79.9134 189.7L78.8905 168.466L77.9969 149.98L81.5888 148.762L120.006 135.69L135.919 114.98L169.039 115.227L185.253 115.351L212.306 140.469L218.461 143.412L218.508 143.435L222.923 145.548L234.116 150.898L245.95 156.56L252.022 159.461L252.151 159.526Z" fill="#CACACA"/>
<path d="M140.199 284.554C137.772 285.495 135.168 285.892 132.571 285.717C129.975 285.542 127.448 284.799 125.168 283.541C122.889 282.282 120.914 280.538 119.38 278.433C117.847 276.327 116.794 273.91 116.294 271.353L53.6523 262.456L75.4285 237.795L131.576 250.025C135.923 249.47 140.322 250.53 143.94 253.006C147.558 255.481 150.144 259.199 151.207 263.455C152.27 267.711 151.736 272.21 149.708 276.098C147.679 279.987 144.296 282.995 140.199 284.554Z" fill="#CB9A94"/>
<path d="M112.269 239.719C111.109 238.246 109.466 237.231 107.631 236.853L81.9298 231.503L79.2903 230.956C77.7563 230.635 76.3072 229.994 75.0379 229.074C73.7685 228.154 72.7075 226.976 71.9243 225.618C71.1118 224.191 70.6203 222.605 70.484 220.968C70.3615 219.481 70.5394 217.984 71.0072 216.566L79.9133 189.7L85.692 172.268C86.3923 170.165 86.8057 167.978 86.9207 165.764C87.2427 159.639 85.3497 153.603 81.5887 148.762C78.2822 144.506 73.6961 141.428 68.5079 139.983C63.3197 138.537 57.8047 138.801 52.7776 140.734C52.6306 140.787 52.4777 140.846 52.3308 140.905C48.7256 142.346 45.5046 144.607 42.9223 147.509C40.34 150.41 38.4672 153.874 37.452 157.625L31.1736 180.489L18.2229 227.625C16.9265 232.347 16.6646 237.294 17.4552 242.128C18.2457 246.961 20.07 251.566 22.8032 255.628C25.5364 259.69 29.1139 263.113 33.291 265.662C37.4681 268.212 42.1461 269.827 47.0047 270.399L84.0225 274.742L101.153 276.755C103.134 276.993 105.131 276.476 106.748 275.305C108.365 274.135 109.482 272.398 109.877 270.44C109.904 270.334 109.926 270.225 109.941 270.116L110.353 267.574L113.839 246.163L113.874 245.945C114.056 244.853 114.007 243.734 113.73 242.662C113.454 241.59 112.956 240.587 112.269 239.719Z" fill="#CACACA"/>
<path d="M180.1 285.24C182.635 285.829 185.269 285.855 187.815 285.315C190.361 284.775 192.758 283.683 194.837 282.115C196.917 280.547 198.627 278.542 199.848 276.241C201.07 273.94 201.772 271.399 201.906 268.797L262.669 251.144L237.637 229.805L183.773 249.839C179.391 249.903 175.185 251.574 171.952 254.535C168.719 257.497 166.683 261.542 166.23 265.906C165.777 270.27 166.939 274.648 169.495 278.212C172.051 281.775 175.825 284.276 180.1 285.24Z" fill="#CB9A94"/>
<path d="M292.837 211.658L263.938 145.072C261.574 139.605 257.353 135.153 252.022 132.506C250.374 131.694 248.644 131.063 246.861 130.623C246.584 130.553 246.308 130.488 246.032 130.435C242.25 129.609 238.328 129.681 234.58 130.647C231.154 131.528 227.952 133.122 225.182 135.326C222.413 137.529 220.139 140.293 218.508 143.435C218.49 143.462 218.474 143.489 218.461 143.518C216.639 147.046 215.671 150.953 215.633 154.924C215.595 158.895 216.489 162.82 218.243 166.382L218.602 167.1L239.024 208.162C239.722 209.566 240.115 211.102 240.177 212.669C240.24 214.236 239.971 215.798 239.388 217.254C238.805 218.709 237.922 220.025 236.795 221.114C235.669 222.204 234.325 223.042 232.852 223.575L231.417 224.093L205.622 233.422C203.686 234.113 202.094 235.529 201.181 237.373C200.267 239.216 200.104 241.342 200.725 243.303L200.79 243.509L208.02 266.673C208.056 266.779 208.091 266.885 208.132 266.991C208.196 267.191 208.274 267.386 208.367 267.574C209.136 269.299 210.494 270.694 212.198 271.506C213.901 272.318 215.839 272.496 217.661 272.006L231.582 268.327L234.421 267.574L270.369 258.069C275.099 256.818 279.503 254.558 283.28 251.444C287.056 248.331 290.116 244.437 292.25 240.029C294.384 235.622 295.541 230.805 295.642 225.908C295.744 221.011 294.787 216.15 292.837 211.658Z" fill="#CACACA"/>
<path d="M10 268.419C15 279.419 19 288.919 26.5 297.919L301.091 296.365C303.651 296.369 306.105 297.389 307.914 299.202C309.724 301.014 310.742 303.472 310.744 306.034V380.67C327.244 374.17 347.5 361.419 360.5 349.419C364.356 346.247 368.383 341.866 372 338.419C374.369 336.171 378.245 331.777 380.5 329.419C387.319 322.307 394.456 310.987 401 300.419C402.672 297.718 403.838 294.911 405.5 292.419C407.5 289.419 419.237 267.574 417.668 267.574L10 268.419Z" fill="#3F3D56"/>
<path d="M377 328.419C374.66 330.81 372.967 333.143 370.5 335.419H311V328.419H377Z" fill="#C5C5C5"/>
<path d="M251.622 107.053C251.343 106.536 250.929 106.105 250.425 105.805C249.922 105.504 249.346 105.346 248.759 105.346H56.0344C55.1703 105.348 54.3423 105.693 53.7319 106.305C53.1215 106.918 52.7783 107.747 52.7776 108.612V224.093H252.022V108.612C252.025 108.066 251.887 107.529 251.622 107.053Z" fill="#3F3D56"/>
<path d="M52.603 220.967V235.217C52.603 235.808 52.7193 236.393 52.9451 236.939C53.1709 237.485 53.5019 237.981 53.9191 238.398C54.3364 238.816 54.8318 239.148 55.377 239.374C55.9221 239.6 56.5065 239.716 57.0966 239.716H130.636V267.84H129.659C129.583 267.84 129.507 267.855 129.436 267.884C129.365 267.914 129.301 267.957 129.247 268.011C129.192 268.065 129.149 268.13 129.12 268.201C129.091 268.272 129.076 268.348 129.076 268.424V270.38C129.076 270.457 129.091 270.533 129.12 270.604C129.149 270.675 129.192 270.739 129.247 270.794C129.301 270.848 129.365 270.891 129.436 270.92C129.507 270.95 129.583 270.965 129.659 270.965H175.312C175.389 270.965 175.464 270.95 175.535 270.92C175.606 270.891 175.67 270.848 175.725 270.794C175.779 270.739 175.822 270.675 175.851 270.604C175.881 270.533 175.896 270.457 175.896 270.38V268.424C175.896 268.348 175.881 268.272 175.851 268.201C175.822 268.13 175.779 268.065 175.725 268.011C175.67 267.957 175.606 267.914 175.535 267.884C175.464 267.855 175.389 267.84 175.312 267.84H174.335V239.716H247.875C248.465 239.716 249.049 239.6 249.594 239.374C250.139 239.148 250.635 238.816 251.052 238.398C251.469 237.981 251.8 237.485 252.026 236.939C252.252 236.393 252.368 235.808 252.368 235.217V220.967H52.603Z" fill="#3F3D56"/>
<path d="M150.072 180.066C160.236 180.066 168.476 171.817 168.476 161.641C168.476 151.465 160.236 143.216 150.072 143.216C139.908 143.216 131.668 151.465 131.668 161.641C131.668 171.817 139.908 180.066 150.072 180.066Z" fill="#A80101"/>
<path d="M196.963 58.234H194.023C194.023 35.9876 172.031 21.4097 149.846 21.398C146.619 21.3885 143.399 21.702 140.234 22.3337C136.672 23.0458 132.974 23.8992 129.341 25.0115C115.015 29.4078 101.729 37.9062 101.729 58.234C101.726 62.1818 102.228 66.1138 103.222 69.934L100.377 70.6755C99.3215 66.6128 98.7881 62.4319 98.7896 58.234C98.7896 40.4722 106.073 28.272 118.654 20.9978C125.267 17.1723 133.338 14.7064 142.585 13.5058C146.433 12.9933 150.324 12.875 154.196 13.1527C179.709 14.9889 196.963 34.5751 196.963 58.234Z" fill="#A80101"/>
<path d="M201.86 59.8642L200.702 51.2952C200.416 49.1312 199.375 47.1382 197.762 45.6689C196.727 44.7111 195.488 44.0014 194.139 43.5935C192.789 43.1857 191.365 43.0904 189.973 43.3148L188.133 43.5679C187.63 43.6342 187.144 43.8 186.705 44.0556C186.266 44.3112 185.882 44.6515 185.576 45.0568C185.267 45.4608 185.04 45.922 184.91 46.414C184.78 46.9059 184.749 47.4188 184.817 47.923L187.492 67.6622C187.602 68.4668 187.963 69.2163 188.522 69.8046C189.081 70.3929 189.811 70.7902 190.608 70.9404C190.844 70.9877 191.084 71.0114 191.325 71.011C191.498 71.011 191.671 70.9992 191.842 70.9757L193.9 70.6991C195.154 70.5324 196.362 70.1108 197.447 69.46C198.533 68.8092 199.474 67.9431 200.214 66.9148C200.372 66.6912 200.525 66.4617 200.666 66.2262C201.768 64.3005 202.189 62.0589 201.86 59.8642Z" fill="#A80101"/>
<path d="M186.946 43.9269C186.406 44.1894 185.936 44.5767 185.576 45.0569C185.267 45.4608 185.04 45.9221 184.91 46.414C184.78 46.9059 184.749 47.4188 184.817 47.923L187.492 67.6623C187.602 68.4668 187.963 69.2163 188.522 69.8046C189.081 70.3929 189.811 70.7902 190.608 70.9404L186.946 43.9269Z" fill="#C5C5C5"/>
<path d="M201.86 59.8643L200.702 51.2953C200.416 49.1313 199.375 47.1382 197.762 45.6689L200.425 65.3082C200.465 65.6234 200.546 65.9321 200.666 66.2263C201.768 64.3006 202.189 62.059 201.86 59.8643Z" fill="#3F3D56"/>
<path d="M192.707 66.0383C193.511 65.9291 193.915 64.0128 193.61 61.7582C193.304 59.5036 192.405 57.7645 191.6 57.8737C190.796 57.9829 190.392 59.8992 190.697 62.1538C191.003 64.4084 191.903 66.1475 192.707 66.0383Z" fill="#3F3D56"/>
<path d="M190.943 55.4448C191.748 55.3356 192.152 53.4193 191.846 51.1647C191.541 48.9101 190.641 47.1709 189.837 47.2802C189.033 47.3894 188.628 49.3057 188.934 51.5603C189.239 53.8149 190.139 55.554 190.943 55.4448Z" fill="#3F3D56"/>
<path d="M202.113 59.5645C202.917 59.4553 203.321 57.539 203.016 55.2844C202.71 53.0298 201.811 51.2906 201.006 51.3999C200.202 51.5091 199.798 53.4254 200.103 55.68C200.409 57.9346 201.308 59.6737 202.113 59.5645Z" fill="#3F3D56"/>
<path d="M149.846 21.398C146.619 21.3885 143.399 21.702 140.234 22.3337C136.672 23.0458 132.974 23.8992 129.341 25.0115C123.668 24.7349 119.494 23.2636 118.654 20.9978C125.267 17.1723 133.338 14.7064 142.585 13.5058C146.433 12.9933 150.324 12.875 154.196 13.1527C154.606 13.3932 154.96 13.7179 155.236 14.1054C155.511 14.4929 155.702 14.9344 155.795 15.4008C156.071 17.449 153.737 19.6265 149.846 21.398Z" fill="#3F3D56"/>
<path d="M112.316 78.656L107.79 59.8172C107.628 59.1375 107.27 58.5207 106.76 58.0443C106.249 57.5679 105.61 57.2531 104.921 57.1394C104.727 57.1091 104.53 57.0933 104.333 57.0923C104.056 57.0933 103.78 57.1268 103.51 57.1923L101.758 57.6161C99.5028 58.1622 97.5558 59.5818 96.3446 61.5635C95.1333 63.5451 94.7569 65.9268 95.2977 68.1861L97.3258 76.6374C97.7889 78.627 98.8918 80.4094 100.465 81.7105C100.72 81.9165 100.987 82.1071 101.265 82.2814C102.25 82.8997 103.349 83.314 104.497 83.5C105.645 83.686 106.819 83.6399 107.949 83.3643L109.694 82.9405C110.156 82.8327 110.59 82.6303 110.97 82.3461C111.535 81.934 111.964 81.3631 112.204 80.7061C112.444 80.049 112.483 79.3354 112.316 78.656Z" fill="#A80101"/>
<path d="M102.827 75.1508C103.616 74.9607 103.825 73.0133 103.293 70.8012C102.761 68.5891 101.69 66.95 100.901 67.1401C100.112 67.3302 99.9035 69.2776 100.435 71.4897C100.967 73.7018 102.038 75.3409 102.827 75.1508Z" fill="#3F3D56"/>
<path d="M96.9482 76.9164C97.7374 76.7263 97.9461 74.7789 97.4143 72.5668C96.8826 70.3547 95.8119 68.7156 95.0227 68.9057C94.2336 69.0958 94.0249 71.0432 94.5566 73.2553C95.0883 75.4674 96.1591 77.1066 96.9482 76.9164Z" fill="#3F3D56"/>
<path d="M112.604 78.5853L108.078 59.7465C107.901 59.0111 107.512 58.3442 106.959 57.8291C106.406 57.3141 105.713 56.9738 104.968 56.851L111.146 82.5815C111.757 82.1341 112.221 81.5158 112.48 80.8046C112.74 80.0934 112.783 79.3211 112.604 78.5853Z" fill="#C5C5C5"/>
<path d="M96.3206 64.4548C96.1957 63.9309 95.9613 63.4395 95.6328 63.0129C94.9965 64.6627 94.8796 66.4678 95.2977 68.1861L97.3258 76.6373C97.7889 78.627 98.8918 80.4093 100.465 81.7105L96.3206 64.4548Z" fill="#3F3D56"/>
<rect x="1.14699" y="0.826771" width="16.0008" height="9.01199" transform="matrix(0.987059 -0.160357 0.159928 0.987129 125.883 55.2049)" stroke="black" stroke-width="2"/>
<rect x="1.14699" y="0.826771" width="16.0008" height="9.01199" transform="matrix(0.987059 -0.160357 0.159928 0.987129 154.5 50.4998)" stroke="black" stroke-width="2"/>
<line x1="143.84" y1="57.356" x2="155.684" y2="55.4317" stroke="black" stroke-width="2"/>
<rect x="336.5" y="248.919" width="41" height="9" fill="#474747" stroke="#161616"/>
<rect x="342.5" y="257.919" width="29" height="9" fill="#474747" stroke="#161616"/>
<rect x="377.5" y="203.919" width="41" height="9" transform="rotate(-180 377.5 203.919)" fill="#474747" stroke="#161616"/>
<rect x="371.465" y="194.919" width="29" height="9" transform="rotate(-180 371.465 194.919)" fill="#474747" stroke="#161616"/>
<rect x="352.5" y="203.919" width="9" height="45" fill="#474747" stroke="#161616"/>
</svg>
