<svg width="256" height="45" viewBox="0 0 256 45" fill="none" xmlns="http://www.w3.org/2000/svg">
<path d="M7.8 29.13L1.71 22.5L7.8 15.87H14.25L8.13 22.5L14.25 29.13H7.8ZM239.878 4.5L231.838 38.61H226.888L234.928 4.5H239.878ZM241.172 15.87H247.622L253.712 22.5L247.622 29.13H241.172L247.292 22.5L241.172 15.87Z" fill="#E30000"/>
<path d="M46.7909 11.94V33H41.6609V20.37L36.9509 33H32.8109L28.0709 20.34V33H22.9409V11.94H29.0009L34.9109 26.52L40.7609 11.94H46.7909ZM48.5599 24.6C48.5599 22.88 48.8799 21.37 49.5199 20.07C50.1799 18.77 51.0699 17.77 52.1899 17.07C53.3099 16.37 54.5599 16.02 55.9399 16.02C57.1199 16.02 58.1499 16.26 59.0299 16.74C59.9299 17.22 60.6199 17.85 61.0999 18.63V16.26H66.2299V33H61.0999V30.63C60.5999 31.41 59.8999 32.04 58.9999 32.52C58.1199 33 57.0899 33.24 55.9099 33.24C54.5499 33.24 53.3099 32.89 52.1899 32.19C51.0699 31.47 50.1799 30.46 49.5199 29.16C48.8799 27.84 48.5599 26.32 48.5599 24.6ZM61.0999 24.63C61.0999 23.35 60.7399 22.34 60.0199 21.6C59.3199 20.86 58.4599 20.49 57.4399 20.49C56.4199 20.49 55.5499 20.86 54.8299 21.6C54.1299 22.32 53.7799 23.32 53.7799 24.6C53.7799 25.88 54.1299 26.9 54.8299 27.66C55.5499 28.4 56.4199 28.77 57.4399 28.77C58.4599 28.77 59.3199 28.4 60.0199 27.66C60.7399 26.92 61.0999 25.91 61.0999 24.63ZM78.3713 28.65V33H75.7613C73.9013 33 72.4513 32.55 71.4113 31.65C70.3713 30.73 69.8513 29.24 69.8513 27.18V20.52H67.8113V16.26H69.8513V12.18H74.9813V16.26H78.3413V20.52H74.9813V27.24C74.9813 27.74 75.1013 28.1 75.3413 28.32C75.5813 28.54 75.9813 28.65 76.5413 28.65H78.3713ZM96.1087 24.36C96.1087 24.84 96.0788 25.34 96.0188 25.86H84.4088C84.4888 26.9 84.8188 27.7 85.3988 28.26C85.9988 28.8 86.7288 29.07 87.5888 29.07C88.8688 29.07 89.7588 28.53 90.2588 27.45H95.7188C95.4388 28.55 94.9288 29.54 94.1888 30.42C93.4688 31.3 92.5588 31.99 91.4588 32.49C90.3588 32.99 89.1288 33.24 87.7688 33.24C86.1288 33.24 84.6688 32.89 83.3888 32.19C82.1088 31.49 81.1088 30.49 80.3888 29.19C79.6688 27.89 79.3088 26.37 79.3088 24.63C79.3088 22.89 79.6588 21.37 80.3588 20.07C81.0788 18.77 82.0788 17.77 83.3588 17.07C84.6388 16.37 86.1088 16.02 87.7688 16.02C89.3888 16.02 90.8288 16.36 92.0888 17.04C93.3488 17.72 94.3288 18.69 95.0288 19.95C95.7488 21.21 96.1087 22.68 96.1087 24.36ZM90.8588 23.01C90.8588 22.13 90.5588 21.43 89.9588 20.91C89.3588 20.39 88.6088 20.13 87.7088 20.13C86.8488 20.13 86.1188 20.38 85.5188 20.88C84.9388 21.38 84.5788 22.09 84.4388 23.01H90.8588ZM114.445 16.26V33H109.315V30.72C108.795 31.46 108.085 32.06 107.185 32.52C106.305 32.96 105.325 33.18 104.245 33.18C102.965 33.18 101.835 32.9 100.855 32.34C99.8751 31.76 99.1151 30.93 98.5751 29.85C98.0351 28.77 97.7651 27.5 97.7651 26.04V16.26H102.865V25.35C102.865 26.47 103.155 27.34 103.735 27.96C104.315 28.58 105.095 28.89 106.075 28.89C107.075 28.89 107.865 28.58 108.445 27.96C109.025 27.34 109.315 26.47 109.315 25.35V16.26H114.445ZM124.04 33.24C122.58 33.24 121.28 32.99 120.14 32.49C119 31.99 118.1 31.31 117.44 30.45C116.78 29.57 116.41 28.59 116.33 27.51H121.4C121.46 28.09 121.73 28.56 122.21 28.92C122.69 29.28 123.28 29.46 123.98 29.46C124.62 29.46 125.11 29.34 125.45 29.1C125.81 28.84 125.99 28.51 125.99 28.11C125.99 27.63 125.74 27.28 125.24 27.06C124.74 26.82 123.93 26.56 122.81 26.28C121.61 26 120.61 25.71 119.81 25.41C119.01 25.09 118.32 24.6 117.74 23.94C117.16 23.26 116.87 22.35 116.87 21.21C116.87 20.25 117.13 19.38 117.65 18.6C118.19 17.8 118.97 17.17 119.99 16.71C121.03 16.25 122.26 16.02 123.68 16.02C125.78 16.02 127.43 16.54 128.63 17.58C129.85 18.62 130.55 20 130.73 21.72H125.99C125.91 21.14 125.65 20.68 125.21 20.34C124.79 20 124.23 19.83 123.53 19.83C122.93 19.83 122.47 19.95 122.15 20.19C121.83 20.41 121.67 20.72 121.67 21.12C121.67 21.6 121.92 21.96 122.42 22.2C122.94 22.44 123.74 22.68 124.82 22.92C126.06 23.24 127.07 23.56 127.85 23.88C128.63 24.18 129.31 24.68 129.89 25.38C130.49 26.06 130.8 26.98 130.82 28.14C130.82 29.12 130.54 30 129.98 30.78C129.44 31.54 128.65 32.14 127.61 32.58C126.59 33.02 125.4 33.24 124.04 33.24ZM143.646 29.04H150.366V33H138.516V11.94H143.646V29.04ZM159.533 33.24C157.893 33.24 156.413 32.89 155.093 32.19C153.793 31.49 152.763 30.49 152.003 29.19C151.263 27.89 150.893 26.37 150.893 24.63C150.893 22.91 151.273 21.4 152.033 20.1C152.793 18.78 153.833 17.77 155.153 17.07C156.473 16.37 157.953 16.02 159.593 16.02C161.233 16.02 162.713 16.37 164.033 17.07C165.353 17.77 166.393 18.78 167.153 20.1C167.913 21.4 168.293 22.91 168.293 24.63C168.293 26.35 167.903 27.87 167.123 29.19C166.363 30.49 165.313 31.49 163.973 32.19C162.653 32.89 161.173 33.24 159.533 33.24ZM159.533 28.8C160.513 28.8 161.343 28.44 162.023 27.72C162.723 27 163.073 25.97 163.073 24.63C163.073 23.29 162.733 22.26 162.053 21.54C161.393 20.82 160.573 20.46 159.593 20.46C158.593 20.46 157.763 20.82 157.103 21.54C156.443 22.24 156.113 23.27 156.113 24.63C156.113 25.97 156.433 27 157.073 27.72C157.733 28.44 158.553 28.8 159.533 28.8ZM175.244 18.63C175.744 17.85 176.434 17.22 177.314 16.74C178.194 16.26 179.224 16.02 180.404 16.02C181.784 16.02 183.034 16.37 184.154 17.07C185.274 17.77 186.154 18.77 186.794 20.07C187.454 21.37 187.784 22.88 187.784 24.6C187.784 26.32 187.454 27.84 186.794 29.16C186.154 30.46 185.274 31.47 184.154 32.19C183.034 32.89 181.784 33.24 180.404 33.24C179.244 33.24 178.214 33 177.314 32.52C176.434 32.04 175.744 31.42 175.244 30.66V40.98H170.114V16.26H175.244V18.63ZM182.564 24.6C182.564 23.32 182.204 22.32 181.484 21.6C180.784 20.86 179.914 20.49 178.874 20.49C177.854 20.49 176.984 20.86 176.264 21.6C175.564 22.34 175.214 23.35 175.214 24.63C175.214 25.91 175.564 26.92 176.264 27.66C176.984 28.4 177.854 28.77 178.874 28.77C179.894 28.77 180.764 28.4 181.484 27.66C182.204 26.9 182.564 25.88 182.564 24.6ZM205.356 24.36C205.356 24.84 205.326 25.34 205.266 25.86H193.656C193.736 26.9 194.066 27.7 194.646 28.26C195.246 28.8 195.976 29.07 196.836 29.07C198.116 29.07 199.006 28.53 199.506 27.45H204.966C204.686 28.55 204.176 29.54 203.436 30.42C202.716 31.3 201.806 31.99 200.706 32.49C199.606 32.99 198.376 33.24 197.016 33.24C195.376 33.24 193.916 32.89 192.636 32.19C191.356 31.49 190.356 30.49 189.636 29.19C188.916 27.89 188.556 26.37 188.556 24.63C188.556 22.89 188.906 21.37 189.606 20.07C190.326 18.77 191.326 17.77 192.606 17.07C193.886 16.37 195.356 16.02 197.016 16.02C198.636 16.02 200.076 16.36 201.336 17.04C202.596 17.72 203.576 18.69 204.276 19.95C204.996 21.21 205.356 22.68 205.356 24.36ZM200.106 23.01C200.106 22.13 199.806 21.43 199.206 20.91C198.606 20.39 197.856 20.13 196.956 20.13C196.096 20.13 195.366 20.38 194.766 20.88C194.186 21.38 193.826 22.09 193.686 23.01H200.106ZM213.972 33.24C212.512 33.24 211.212 32.99 210.072 32.49C208.932 31.99 208.032 31.31 207.372 30.45C206.712 29.57 206.342 28.59 206.262 27.51H211.332C211.392 28.09 211.662 28.56 212.142 28.92C212.622 29.28 213.212 29.46 213.912 29.46C214.552 29.46 215.042 29.34 215.382 29.1C215.742 28.84 215.922 28.51 215.922 28.11C215.922 27.63 215.672 27.28 215.172 27.06C214.672 26.82 213.862 26.56 212.742 26.28C211.542 26 210.542 25.71 209.742 25.41C208.942 25.09 208.252 24.6 207.672 23.94C207.092 23.26 206.802 22.35 206.802 21.21C206.802 20.25 207.062 19.38 207.582 18.6C208.122 17.8 208.902 17.17 209.922 16.71C210.962 16.25 212.192 16.02 213.612 16.02C215.712 16.02 217.362 16.54 218.562 17.58C219.782 18.62 220.482 20 220.662 21.72H215.922C215.842 21.14 215.582 20.68 215.142 20.34C214.722 20 214.162 19.83 213.462 19.83C212.862 19.83 212.402 19.95 212.082 20.19C211.762 20.41 211.602 20.72 211.602 21.12C211.602 21.6 211.852 21.96 212.352 22.2C212.872 22.44 213.672 22.68 214.752 22.92C215.992 23.24 217.002 23.56 217.782 23.88C218.562 24.18 219.242 24.68 219.822 25.38C220.422 26.06 220.732 26.98 220.752 28.14C220.752 29.12 220.472 30 219.912 30.78C219.372 31.54 218.582 32.14 217.542 32.58C216.522 33.02 215.332 33.24 213.972 33.24Z" fill="#FBFBFB"/>
</svg>
