<svg width="18" height="18" viewBox="0 0 18 18" fill="none" xmlns="http://www.w3.org/2000/svg">
<path d="M17.7357 16.4623C17.8193 16.546 17.8856 16.6452 17.9308 16.7545C17.9761 16.8637 17.9994 16.9808 17.9994 17.0991C17.9994 17.2173 17.9761 17.3344 17.9308 17.4436C17.8856 17.5529 17.8193 17.6522 17.7357 17.7358C17.652 17.8194 17.5528 17.8857 17.4435 17.931C17.3343 17.9762 17.2172 17.9995 17.0989 17.9995C16.9807 17.9995 16.8636 17.9762 16.7544 17.931C16.6451 17.8857 16.5458 17.8194 16.4622 17.7358L8.99939 10.2718L1.53655 17.7358C1.36769 17.9046 1.13865 17.9995 0.89984 17.9995C0.661026 17.9995 0.431993 17.9046 0.263125 17.7358C0.0942582 17.5669 -0.000610347 17.3379 -0.000610352 17.0991C-0.000610356 16.8602 0.0942582 16.6312 0.263125 16.4623L7.72708 8.99951L0.263125 1.53668C0.0942582 1.36781 -0.000610352 1.13878 -0.000610352 0.899962C-0.000610352 0.661148 0.0942582 0.432115 0.263125 0.263247C0.431993 0.0943802 0.661026 -0.000488281 0.89984 -0.000488281C1.13865 -0.000488281 1.36769 0.0943802 1.53655 0.263247L8.99939 7.72721L16.4622 0.263247C16.6311 0.0943803 16.8601 -0.000488286 17.0989 -0.000488281C17.3378 -0.000488277 17.5668 0.0943802 17.7357 0.263247C17.9045 0.432115 17.9994 0.661148 17.9994 0.899962C17.9994 1.13878 17.9045 1.36781 17.7357 1.53668L10.2717 8.99951L17.7357 16.4623Z" fill="#E1E1E1"/>
</svg>
